<mxfile host="Electron" modified="2024-03-04T18:30:37.769Z" agent="Mozilla/5.0 (Windows NT 10.0; Win64; x64) AppleWebKit/537.36 (KHTML, like Gecko) draw.io/22.0.3 Chrome/114.0.5735.289 Electron/25.8.4 Safari/537.36" etag="3ZFAiWAi-9urQdSGiK15" version="22.0.3" type="device">
  <diagram name="Page-1" id="WAcFltV8Q24-HcMrsR0X">
    <mxGraphModel dx="1098" dy="820" grid="1" gridSize="10" guides="1" tooltips="1" connect="1" arrows="1" fold="1" page="1" pageScale="1" pageWidth="850" pageHeight="1100" math="0" shadow="0">
      <root>
        <mxCell id="0" />
        <mxCell id="1" parent="0" />
        <mxCell id="Dy3p9FaAVhc_dsnNynxQ-16" value="" style="rounded=0;whiteSpace=wrap;html=1;dashed=1;dashPattern=1 2;" vertex="1" parent="1">
          <mxGeometry x="60" y="320" width="870" height="350" as="geometry" />
        </mxCell>
        <mxCell id="Dy3p9FaAVhc_dsnNynxQ-12" style="edgeStyle=orthogonalEdgeStyle;rounded=0;orthogonalLoop=1;jettySize=auto;html=1;" edge="1" parent="1">
          <mxGeometry relative="1" as="geometry">
            <mxPoint x="697" y="500.75" as="targetPoint" />
            <mxPoint x="554.5" y="500.79999999999995" as="sourcePoint" />
          </mxGeometry>
        </mxCell>
        <mxCell id="Dy3p9FaAVhc_dsnNynxQ-11" value="" style="rounded=0;whiteSpace=wrap;html=1;fillColor=#f5f5f5;fontColor=#333333;strokeColor=#666666;" vertex="1" parent="1">
          <mxGeometry x="367.5" y="349.44" width="180" height="303.75" as="geometry" />
        </mxCell>
        <mxCell id="Dy3p9FaAVhc_dsnNynxQ-8" value="" style="rounded=0;whiteSpace=wrap;html=1;" vertex="1" parent="1">
          <mxGeometry x="707" y="441.5" width="190" height="110" as="geometry" />
        </mxCell>
        <mxCell id="Dy3p9FaAVhc_dsnNynxQ-1" value="GitHub Actions" style="dashed=0;outlineConnect=0;html=1;align=center;labelPosition=center;verticalLabelPosition=bottom;verticalAlign=top;shape=mxgraph.weblogos.github;fontStyle=1" vertex="1" parent="1">
          <mxGeometry x="420" y="403.5" width="75" height="70" as="geometry" />
        </mxCell>
        <mxCell id="Dy3p9FaAVhc_dsnNynxQ-2" value="CÃ³digo do Site&#xa;" style="shape=image;verticalLabelPosition=bottom;labelBackgroundColor=default;verticalAlign=top;aspect=fixed;imageAspect=0;image=data:image/png,iVBORw0KGgoAAAANSUhEUgAAAgAAAAIACAYAAAD0eNT6AAAAAXNSR0IArs4c6QAAIABJREFUeAHsvVuQHdWVNpgqlVRlWRgjNI5xRDPtsAneHH7xi/2kME/yK4H9Rsj+3Qpbl1JJloQEuhxusmig3TQw022PQ9EtG8Hwl0RRqtaFSyPgt0A2EkKI+fvB003QEf1H/OFQM4pxN4FwTq998kut3GfvPJnn5MnLya8iMta+rL0zc1We/L699t4rg4B/tAAtQAvQArQALUAL0AK0AC1AC9ACzbHA6t2Lt626/9VvrHro7HdWP3Jx9k9+/k9/87/+7x+cFHnTYxfvlXJTf++pW4J1h6abc2e8UlqAFqAFaAFagBaILNCZEMAXoP/f/u5f3/7K/L9dy3vctng1vPEv//HpL+x95Ws0Ky1AC9ACtAAtQAvU2AKr7j11i4zoXWAvgH7LM//67/2kq+2tx67+XrwEK9Yf/mKNb5+XRgvQArQALUALtMkCnQlx3//JL//HP7vAG6AvwJ/1QBtI3a+cR87XJgvzXmkBWoAWoAVogVpZQNzzX/6//uf/FIAWsJbjc0+eD/Wx8q/+n/8PQJ6VANh60l6TAKkXr8DKA+d/FASdiVoZhRdDC9ACtAAtQAuMrQXWHZoWV78AffDg29eCe06Fwa7o2PNiuGzvy2FwTyT3vBia+ntOmXJp86fP/f4TkAaAfRaSAB1NBiQtaw2CNZ3JsbU3b4wWoAVoAVqAFqjaAjf8eGH1xF+89y8C8l2gPxUGAvIgALE80QX+XSfCQB9CFu45ZbwEAt4gAJAAeVvqek0AUC5lsk4gWLt5qmob8fy0AC1AC9ACtMBYWUBW9gf3vn7VAL+Avhrd9xIA8QgA/FV654kwkGP7oiEN4hEQ8AbgA9Btadcjr8mApKXd6r/8vx/lVsKxevR4M7QALUAL0AJVWeCm+86uNYAfA7+49q+799MJQAT6AvwgBZLecfITOUACAPoAd8nrNOohpc5FAKT+1heu/lGmKVZt/uXnqrIZz0sL0AK0AC1ACzTaAlO7z2yPwd+APsA/IwHAqD+Wi10vwM7FMNgu3oATZjrhtoWrxhsAgNcSRADSVWeTAXgEJJ6ATF1wwWCjH0NePC1AC9ACtECZFli2/+wTXVe/Bn2d7s7pp3oAYuCH+z+aApBpABw7Fw0JAGgD6CE14CNt10neRwKkjUQelFgFZdqP56IFaAFagBagBRpmgc7E9O7TT2NFf9fdr4EfabUDIF4AiLLI5d9DAMQDoMB/+0JMBOR8AtYgAjbY26Av9XYZ8i4yIGX/y//xz6+a9QwN+4/wcmkBWoAWoAVogRFboDMxueeVN4I9sp2vu6UvPwGw5vtBAjDijyXAX+RCGGxbNDsEAOKQIAJa2nV2HuTARQSkTsIUM9TwiB8ldk8L0AK0AC3QEAusOzQ9ec+L73dX+vcDf/ECuKYA1KI/AL+M+BOjfngAAPwC/gthMDtvSABiBQDwAe62BMhDz5XXZWivSYEQgRv3vXZ7Q/5DvExagBagBWgBWqBYC8iK+SV7Xv3Av+APbn8tR0AAti+ES+97w0wFALA1wPvStq6dRzsp1wQA5RJm2Ox2YHTBYh8s9kYL0AK0AC1QXwuYxXG7XrT2+Gug96WHIQDR6N+4/mXkL0fkBdi+YOb2AeL9JEBcJHRRZuftck0GJC3hjQ0RYHTB+j6wvDJagBagBWiB4S1gFsTtfvlaIsCPCfLjA31dXgABENAX8Bf3/2yUnpm/JvEBANZpEgAPCV1fXpdL2iYApv3C1VCIwOcfePN7DDM8/DPGHmgBWoAWoAVqZoFV97/6jevA/3I3ul9PsB8N+Ha6aAIQeQJmj4XBzLyJ7CcADdC2JcBeS+igzM6jXEvo2GRA8vGHh+gRqNnTy8uhBWgBWoAWGMgC5rO6stLfHFFoX4A/ZE/gn4wEQCL+xQsAJe1aBKgXAMIDAAIg+WPmw0EaqHUaoG1L6KAceZEosyV0pNwmAaj78tErn5gPD/F7AwM9b2xEC9ACtAAtUAMLSHS/eKV/GgnoSwCEEGDfP6Rr/38OAiCjfzMdcCz+aJDLCwBgtiXAHeV2HuVa2jrI22QAefPhoXWHpmvwr+Ql0AK0AC1AC9AC2SzwmX2vH+wFf8v9n9kDMCoC0J0CsL8T4AJtgDUkdHQeaZ90tZEy0QfoQ0JX8ubDQ3c+tTKb5alFC9ACtAAtQAtUZIE4ul886scUAKRjKsDpBcBo3yX7eQCiPf9m8V+06C9eBCij/+iYORaHBxawtcEbQGxL6KHczqNcS1vHlwcJ0FK+YSAfHgruevLmiv6tPC0tQAvQArQALeCxwJrO5PJdLx13j/wB/nm8AC7gR9kABMC4/Lvz/l0CMG8WAQa7X74mYKvBWtIAaJ/UOjqdpq/1JO3La/A317ZwNRQSIPry4aEV6w9/0fNfYDEtQAvQArQALVCiBezoft7RP4iA5QXweQB65v5BAESmLQJ0eABsAjAjUwBzhgQAcG3wtgE6a33edra+zuPabMkPD5X4fPNUtAAtQAvQAr0WQHS//iN/gL/DC+AkAK65/wIJQLQNMNhx8hMzynaMyG3AR14DNMogdZ1Ou+pRBqn1kbaBH3mpl4MfHup9JllCC9ACtAAtMGIL3PDjhdXBva+b6H5CALKTAMsDIAsCnSRAA76dLsID0F0ICFAFEEMChNNkWh368cksbbUOrtMl+eGhET/s7J4WoAVoAVqgawET3W8g8Hd4AKoiAOIFyOEBEDDWgGwDe786Xa/T6EeX2WmdF32bBGCNgBABCb7E55QWoAVoAVqAFijcAvKJ2+5oX0by3ZF/9tE/pgIsL8AgHoDEOgAdB6CYNQAuYHaVaXD2pdHOllrfrrPzoqsP1NtkQPL88FDhjz07pAVoAVqgzRboTMhHbPKDPUBfS4sAOL0ArjDAmAqwdwIMQgB6PQAAWIDroDIN2F11usyXtq9F9KBrkwDUCREwERn5BcI2/3B577QALUALDGeBFXef3jg4+DsAH8GAIDN5ASLgl9G/9gBsXwyD+NAeAB36V7b+ybw/jsF2AQB0AbI2MCOfVa+fvu4HurbUOjYZkHz84aHhHgG2pgVoAVqAFmibBSS6H9z93dj+ejSfJV0mAVjsfvbXBAJKIwBuD0AauGqg1Wm0yVqWpo86n9TnsNPI2yRAymWdwK3/9ervVx44/yN+gbBtv2DeLy1AC9ACuS3QmVi668wvBh/5gxzUkQC4PQAA0TxS6+q0DeKuOldZlnbQcbXXZTYZMB4BfHiI3xvI/YtgA1qAFqAFWmGBbNH9APJpMgMB8K0D2IV5f5FZpgAG9wAAVCE1kKLMlmk6uk6n0YevTJfrdFo71EFKO7S1SYDZNbBwNZRyfnioFT9l3iQtQAvQAhktINH99rzyxvAjf00KMpCAnnUAroWAigTgk8Dx/H+0FsD5HQC9BkBG/91ogABHAKctAaIAVJ1P00Wd1tdp1EPmrdP6vrTuG/fpkkII+OGhjL8NqtECtAAtMK4WkOh+k/e8+P5gc/0a8F3pPiSgbAKQMw4AABXSB7y6HLq21Do6Db1Bylxt0J+WNglAHIFbj/HDQ+P6u+Z90QK0AC2QagGJ7rdkz6sfFDvy10QgLwFwhQRWHgDsBBjYA3DMuMEFEDVACpCmgamu02m7j355V1tdptPoy1WGOkitI2nXAd0eMiD6890PD5loj6lPDCtpAVqAFqAFGm+BVfeeuiXY9aIJ7Tua0T+IQF4SoNcAeNYB2ARgO7YC+nYBRFMAlgcAQAlwhNSAirKs0u5zkL6ytOmnY18v9HsIgPr6oHgG5MNDU+uf+UrjH3DeAC1AC9ACtECvBRDdb3Qjf4D/y564/67vAUTz//ZXATHvr2WCACyEgSYA5kuAx0LzGeBEDIC5MNjk9wD4ABPAqaUvbfeBvE9fl0MXUtdJWud9Orrcp6/LbTKAvOjww0O9vxuW0AK0AC3QaAvcuO+12wX4SwF/+VRwzzy/C/wj17+AfyEEYN5NACwPgAZMV9pVpgEU9ZC6TqcHqUcbW/br19ZHXreTNPIAfS1RLx4B+d7Aiq2LX2/0Q8+LpwVoAVqg7Rb4/ANvfq804BfwrxsBSPEAABC19KVdoIqyvFKfw26bVmfrIq/b6DTqbal1NAlAWupBBIQ8tv03xPunBWgBWqBxFpjeeXrvaOf6ldsf4D8qAiDTAfE0gGsKwPYAdLcA2l8D1OBnA2O/vG47TBrn8fXRr163g25eafcB8BeJHQNGLlwN+eGhxv30ecG0AC3QZgss23/2idJH/iABg0wB6GkAPfev07kIgCwCdK8B0ODnSwNQdT3KIHWdLw1dn9TtoKPLsqSztNP9aH0px6FJgJ0WHX54qM1vFN47LUALNMACnYnp3aefDswHeDwjdAD1KGUmEqAWAWoCIJEBNfAjnYUAzOJDQP09ABoUdVoDJNKDylH1a1+PPo8vjTa6HmVa2uBvewXiDw+t6Uw24AfBS6QFaAFaoAUWWNOZLD6634AkonIC4PcAaLBzgWG/Ml2v075+XTq6zJf29Ydy3Q5lg0rpSx/ox0UGUMYPD7XgncJbpAVogQZYQEL7jiy636hIQPkeAACbT7pAVZf50ugPIKrzSEP268Onl7Wdr32/cql36UgZQF9L3OufPvf7T1Y/cnE2WLt5qgG/FF4iLUAL0ALjYwEJ7Xs9ul+fIDxmaqAknb5eABcBiKIAwu1v5GIY7Iy+ASDTAPF3ACQYkCz+w4FYADL3Dw/AXCISIECOsgv2WewA4iG6ktYkwE6bDw/d+dTK8fl18U5oAVqAFqipBRDdr7vavyRgz0oi+hIAVyyAggiABATadCwMdr9sQgC7gM4GNltH19t1dt7WtfOi7ypDP7rOl3b14dPV5f3OgXq7f1cf0LWBX/LYNSBp+fCQENOa/mx4WbQALUALNNsCq3cv3pYM8DMOBCAKBVyUB2Bm/poAkga3NGBz1aHMJwGK+hwoQxvktY6rTuvptK1r57WuTvfTQz2kbot0Wh10RNqkQL438Cc//6e/Ce568uZm/9J49bQALUAL1MgCq+5/9Ruy0v/6Vr+agb94CQbyABREAIwHYC6UOAA+ANPlOg1Qc5WhzpZZdNN0dJ0vbZ9T8j5dXY52ukynUW9Ll46rTLcDCRA9IQDmWOh+eGjF+sNfrNFPiJdCC9ACtEDzLLDqobPf6W7zqyHo6+mBwgjAieQagMQ6AP0xIP8aAA1SaWkfwOlyXxr99qsXPa2DdmlS6+t0Wpus59H96TT67lfmqpe2IANayoeHzLRV0Jlo3i+PV0wL0AK0QIUWmNp9ZnsjwL9QD8AABAAfBXKsAQBgQaYBpdYBIPpkFl2fji73pV3n9enqct1Ol+u01kHaVe8qg74tNfAjjSiD8uGhz256/qsV/pR4alqAFqAFmmOBz+x7/WDX5V/zkT+8AHXwAERrALICl09Pl/vSAMB+9aIHHUi09Umtp9M+fZRn0dU6Op3Wh9bzpdHeliADIvnhoea8f3iltAAtUJEFrkf3awj418IDMNezC8AHVrpcAAt5SBvEXPk0XdRB2u11uS9tt5G8T1eXaz1drtP9+kZ9vzbQS5OaAGDngBABfnioopcLT0sL0AI1tcCazuTyXS8dr/ViP4z4bZnwALj2/MuCP9chLn/rcIYBjuIAmFgAVghgxAHI6QHwAZcGPl8abfvVu/RQ5pNZ+/S1TyvP0rfWkb503pV2lbmuQZMBSfPDQzV9D/GyaAFaoGQLSHS/Pa+8Ucs9/jbYu/JVEgD5ENDM/DVfHAAfQPnKXeBll+m2dp3Ou/R0mS+t+0Dap5u3HP3ZUvdj1+XNoy9ItAcJkHLjEZi/Gsr3Bm667+zakn9xPB0tQAvQAtVboLbR/VxA7yurkgAU6AHQgOVLA8xE+nR0OfRdZajTUuvptNYZNK3702ndny4fJq37dKVjMrDQ3UIoUwPdXQPV/yZ5BbQALUALjNwCN/x4YXWw68WrjVntX0cCYDwA/jUAeUHMBVZ2me7TrrPztq7O+9J2H5L36eYtt/tGe0i7voi8q2+bACCWgEQWDLh1cOTvHp6AFqAFKrSARPcT8G/knL9NBFriAbCBTOd96bwAWlQ/rvNm6dunk6ccupC4Fjsv5SACIqVeiIB4Aww5rvD3yVPTArQALTACC3QmvrD3la+NBfCDCFRJACpYAwBAyyo18GVJu/rN0i6LTr++XfWjLEsQAJkOiKYEvnz0yidcGzCC1w+7pAVogeossHLHyTsatccfIJ8mqyQAJa8ByAKyWicveOq2Op23H5e+7k+noavLykzj/D1kYP5qaL46yCmB6l5YPDMtQAsUY4EVd5/e2Pj5fhcRqJIAVLAGAIDVTwJEIUU/S9rVb5Z2WXT69e2qL6ushwBE3oAuCSjmN8heaAFagBYo3QJxdL8EWGb9kE6T9AaNA7BofQdgIQy2y/7/hTCYnVcH4gDI9r+5MIg9AHPm+/XDgFUWAM2rk/d6fP3n7cel369vX/2oy13XapMBkoDSX1k8IS1ACxRhgaW7zvzCjPzHHvyFqFREANS3AIYBLBcYDVuW93pc58vbh0+/X9+u+lGX6WvFuWwCIIsDuSagiLcR+6AFaIFyLJCI7tekUfww11oRAdhEDwDA0yc10Oo09HVZmWnX+VEmEmTg1rmrIXcHlPPq4lloAVpgGAvE0f2GAdMmtq2IANADUMj6Ag28ZaU12XCdEwRAvAASQjhY05kc5qfJtrQALUALjMwCEt1v8p4X3zer/Vvh9tdEpSICUEMPQD9gc4GdbqPTLt28Zbo/nUY/uqzMdL/zox5E4Ma//MenR/bjZce0AC1ACwxqAQF/E92vdcAPElAyATALAZ8Lg22LIUALUoAjbxpgU6Qs4hry9uHTd92X1nXVj7os6/lBAESuuv/Vbwz6G2U7WoAWoAUKt4CJZb775WtxkJ9WkoCSCQB2AdTQAzAIcGow1OlB+rLb6P50Gnq6rMx0nvND99b/evX3hf+A2SEtQAvQAoNYQKL7yRfp2rPaHyN+W5ZMAOAB4BqATN4OAKiWGux1eVnpvOeHJ2DVQ2e/M8hvlW1oAVqAFijMAjfue+32oJWjfRv8Jd+PAJwIg52uQ8cBiGIA9MQBOBYGsyoOgIz+Nz3XjQVQgAegLMDjef7134uwwa3HxAvQmSjsh8yOaAFagBbIY4HPP/Dm9wj+mgiUTQCiYEDKA1AEuLCPYkB6VHaEF4CxAfK8rahLC9AChVlgeufpvXT5a/CnB2BUgMd+3YREvhxY2A+aHdECtAAtkMUCy/affYLgb4N/hQSAHoBC3OpNIhriBZDYAMGdT63M8pulDi1AC9ACQ1qgMzG9+/TTBvzlwzic+7dsUPYUANcANAm0R3Gtqx+5ODvkj5rNaQFagBboY4E1ncnJPa+8Eex52QI9EoHrRKhsAsA1AKMA1ab0KV4ATgP0eW+xmhagBYa0gIT2vefF9+n270d2yiYA9AA0BaxHdZ23Pns1HPLXzea0AC1AC7gtINH9lux59QOCfz/wl/qKCADXALRuDQAIhXgBTBAu98+XpbQALUALDGYB82LZ9eJVgn8K+O86FQaZDzsGQLT/f6eKA7BtIQziYz4MZnEgDsBcGJgAQIgD0PUCCBAAFCjdq+bH1S5mO+5gP3G2ogVoAVqg1wKrdy/eZqL7caFf+pqHzOAvRKFoAhCRAHoAWu0B+JOf/9Pf9P6CWUIL0AK0wAAWMB8bIfCnAz/sUykBkNE/PQDjOrLPel9cCDjAS45NaAFawLZAZ8LEGAe4UfYnAZUSAHoAsoLkuOpxJ4D9DmOeFqAFBrLA1O4z27sL2VLmvEkKkqSgUgJAD8C4Anue+/qTX/6Pfx7oB89GtAAtQAvIR0U+s+/1g9f3s5MAZLZFpQSAHoA8QDmuut0PA/E9RgvQArTAABaIo/txdJ8c3WexR6UEgB6AcQX1PPfFWAADvPTYhBZovQXWHZpevuul45lHu1kAsW06lRIAegDyAOW46pIAtP5NTgPQAjktwOh++Uf7LnKTiQCc6G4BtLcBbl8Mg8ShYwBI2o4BcKwbA8DEAcDon7sAxhXYs94XCUDOdx/VaYE2WyCO7ucCNJblIwaVEgB6ALKC5DjrkQC0+W3Oe6cFcljghh8vrA4kup8JW8vFfkNPf1RKACIvwIa5kJEA2xX9TxMaEoAcL0Cq0gJttYCJ7mfAn8A/NPDDU1IpAaAHQANhW9MkAG19o/O+aYGMFuhG9zsVMq5/weSnUgJAD0BbQV/fNwlAxpcg1WiBNlpg5Y6TdxQ24sXIl7K7VqBSAkAPgAbCtqZJANr4Vuc90wIZLLDi7tMbOeoveNSvyU+lBIAegLaCvr5vEoAML0Kq0ALtskBnYnrn6b0c+Y8Q/IUIVEoA6AHQQNjWNAlAu97svFtaoI8FOhNLd535hRn57xEAPMVjVDZIIwA7T4WBOezPAEvejgEgecQBmFcxACQWwLHuIfv/cchXADfAA/AcdwE8w10AfV4KrKYFaIGxt8CazmQ3uh9BvxTiUyUBAAnY/fK1to5+ed//+u/0AIz9W503SAtksIBE99vzyhvdOX8SgLEnAOIB2PBsGGxiHIA2EwESgAzvRqrQAuNsAYnuN3nPi+935/wJ/qWAv0wr0APw720G3zrcOwnAOL/ZeW+0QB8LSHS/JXte/YAj/wqIT5UEgGsASD6e4RRAn9cjq2mB8bXAqntP3dIN7cvFfqWN+vWCwioJANcAkACQAIzvy513RgukWeALe1/5WiWgpwGw7ekqCQDXAJAAkACkvSJZRwuMpwVu3Pfa7QT/Clz+NuGpkgDQA0ACQAIwni943hUt4LPA5x9483upi8/SQIl16Qv3hrLPiTDYpY6drv3/KNNxABZUDACJBaDjAEQxACQWgMQA2BQF/wH4R5JfA2QcAN/7guW0AC0wJhYw0f2GAqk+K9fZ9xAEQYG/EIFREwABfzl2nPykDqvReQ3VkBDuAhiTlztvgxZIs8Cy/WefMG5/gvQQID1KAlQyAcAuAMYBaPVUAAlA2luTdbRA0y2wpjM5vfv00wT/UYJ3EX2XTADoAWg18MPjQgLQ9Bc8r58W8FlgTWfSRPfDF+g4+q/p6F8IRMkEgB4AEgAuAvS9OVlOCzTcAhLaV6L7EfRrDPrac1ARAeAagFYTAXoAGv6e5+XTArYFJLSvie4n285IABpig4oIANcAkADYLxDmaQFaoJkWSET3I/g3BPwrmALgGoBWAz/XADTz/c6rpgW8Fli9e/E22dbFBX9N9Hz08wDovf86reMARDEAJBbA7HwYzMj+/ygGQE8cAPkSoHwRkF8DBBi2UXIKwPs6ZQUt0BQLdCZW3f/qN7pf83uxQaPeJgL1qK65bALAOABtBHx9zxIAigSgKe94Xict4LHA8m0vfdd8zY8u/waTn7IJAD0AGgzbmiYB8LxUWUwL1N8CnYmp3We2m5E/wb/B4J9lDYB2++v0oFMA9AC0FfRx3/QA1P8NzyukBbwW+My+1w/GH/UhASABwHcAuAaAC/yeyRZamB4A7+uVFbRAfS3Qje7H+f7x2eZY9hQAPQAYCbdVGg/A3NWwvm85XhktQAskLRBH9xvVYjT2Ww2pKJsAcA1AW4Ff3zc9AMnXK3O0QH0tIOAv0f0Y4Kfh7n4XySqbANADoIGwjWmuAajvq55XRgskLBBH9zMx410AwrJqRu5D2D31k7/2J4H1wj9JR4v/ILctdPf+y/5/cyAGgI4DEIG+fAdgw7PRwTgAbQR/3DM9AInXLDO0QP0scMOPF1YHu1682v1gzBCAw4WC9fIcVEoAhAQ8F0rgKIABZbaFc+NiJ3oA6veu5xXRAgkLMLrfGBOeSgkAPADPhQIE4wJqvI98JIYegMTrlhlaoD4WMNH9JLQvR+71GrkX9f+olADQA9B2skAPQH3e9bwSWiBhgZU7Tt7BPf5jPPoXElEpAaAHoO0EQO6/+R6AtZunZI7UzJPe+dTKYE1nMgg6E4m3KTO0QIMssOLu0xs56h9z8K+cANAD0HYC0DwPwJrO5Bf2vvK1Gw6++/CyRy+dDR6//Gnw+OXQdUi9hEk1btS1m6ca9P7npbbYAia6H1f6j6fL3546oAeAEfsyRuwbFVlphAdAFkLd8Oj7f6+AXoDfC/5Kz5CDycfe+3j1IxdnAxKBFkNr/W996a4zv+BK/xaM/EEEKiUA9ACMClSb0m/tPQDi1l/+5+8cswF9mLz5eIqZJqg/IPAKW2KBNZ3J5bteOk7wbxH4DzsFIPv+Ewf2/0MiDsBcGMzMhcEmORAHAPP/IrkLoCmAXfR11poArDxw/kd5Rvl5SMHEX7z3L9ObXvgW1wq0BGDrfJvrDk1P7nnlDc75twz8KycAvR4AcQcLKGigYVl3odw42kX+t7c+V7dvAaw7NF30qN9HDsx5OC1QZ3gc72sT8JfQvrv4UZ9WEqBhpgASo3/xBmDkD5nPAyBgAODHyBB5kSwbPxvgf1qbl+yqe0/dIqNzH2CPolzON7X+ma/Uxgi8kFZYQEL7dqP7tXDkiznwtstKCUCvB0AAQQ4N/PQAjI8HQP6v+H/Gsi4eAFnot/yv/vtHowD5vn3+9PIny7e99F1OCbQCeyu/SSG6DO1L4jNUHIAReQC0J0ATAYwWWXbdUyK2aKJd9P9Q/t8VvxA7E7K1L/jp5U/6ArVny19R7Zbdf+4IdwpU/DiM+enNs972kS/vv7vNsWYeAA0MSGOkiLxIltXfBr7/k/1/vHWuYgJw031n145qsd8gxGDJwXc/WLH+8BfHHId4exVY4MZ9r93eyrluAr47rkGlBAA7Abq7AHwjfwEM1yjXV+7SZZnbhmXYxfd/AhGo1AMQrfR3BvIZBLwLaNONL/DTy59MbTvx7QowgqccUwssmz3+fYI/3f6JZ6BSAtC7BgCgAOka6Uudq5xl9bKL7/9k/28r8wDc9NgV2JZ/AAAgAElEQVTFew1g//RyGNTlwBSDXM/jl8NlB377s25o4TFFJd5WKRaY3nl6r4nrz5GweyTcVrukEYDtJ8LAHIthsN1x9FsDMGPvAohiAEgsgA3PhsEPr3sABLwBDCJlZIrDrrP17PoyRrU8x3AeBfwPYcdSXoL6JAZY6wL6adfx+OVw4tF33wvuevJmff1M0wJZLTC1beHniVFfW8GO991LfqokACABO05+AkCAFFCXQwACZVq66lhWLw9Alv+H6JQcB6AzYfbeRyPs2oz8+5AACSXcDRyU9bVPPVqgMzG9+/TTwT3c408C5Jn6qJIAKA+AD+gxQgT4Sx6HgAfKtbTbSB3L6mkD/F/KeVev3TxlPuCTBrZ1rnv8cmg+1MIwwuU8L00+y5rOJKP7eUCPnoDrnoAqCQA8ADPzBtTtEaOdFyA3I0aPZ8CnLyCjCQL1qvMU4H8I4DeylDgAdz610rjSZY69ziDf79o4JdBkWC7n2uPofgRAjvz7PANVEgB4AH74XOzuF3DWYC1pgIUud5X5dH3lrj5Ylt3ew9hK/y/lfz7SF6N80MdE9+sHrk2o736B8NOlj17+w+TM898cqeHYeeMsIM/6kj2vfkDg6wN89AJ0vQBVEgDjATgSBo41ADZACNjoQ9dL2jWq95W7dFnmtmHRdnH930a6BkAinkXR/T5t9MjfJieRJ2P5njf3cpdA43B6JBfM6H4E/dzEr0oC8MNnw6Wbjr0lC5xvPXb19xoc7NEl8gAkkVofaeghD+kqZ1k5o32XnfF/ESn/y5G8ECXimYyUa7fVzwbzQfPRlkGzruHOp1aOxIjstBEWMNH9dpz8JDcAcCR8fT68jbaoigD88Ei4fNPRRxD6HIAAgEceACEgostc6axtqVfOaD+LnUVnJHEATMSzbmjf8Rr5u8iCxAs4eOkPK7Yufr0RaMWLLNQCZncIwD/thc66MF/s+xPt1k+NAyBf/7OOWfUVwFkrBsDMXBiY/f/PhcHGuY+705edCfwQxAMAkPeNGF3lLKtuFF+E7dEHnoNC5KqHzn7HhPZ1geW4lkVrA6Z2n9kOVl2IMdlJrS1gPiCFkSsBvt2AXfT/fxQEYOPc77oxTa6Dv/zAMKKXESHSkFlGkqJLvfrbwP6fGg9AkbsAVj9ycXas5vrzEpbHL4eTD547GXBKoNbAXcTFGbK360T/xVxFAwP7awfRKJgALN3w7F/7nnvtAQBIaImRoi6TtKucZfW3i/4/CgnwPRc5yjsTNxx89+FWg7+QhWhdgOx6+Oym57+aw4BUbYwFOhMmHgSBuB1AXNX/uSgCsOm5sF8QMyEAAgQaGCTtGtX7yl26LHPbsAy7+P5P+B/jGgrYBdCZuPEv//HpsV3sN4AXICICn664+/RGTgk0BtkzXaiJ7lcVKPC87SEdRRAAj8vfftC1ByDrCF6AJKsu9aqzle//pImA/Txkz6/pTN7w6Pt/T/B3BDiKvAGcEsj+ONVbszNhovsRhNsDwlX+r4chANvmQ+Pyzxi1FARARoUABpEYJeoyX7lLl2VuG5ZhF/zPXOfSdYN7ANYdmm50aN+8I/tB9SV64F+89y9T65/5Sr0BjlfntUAiul/LV6dXCYptOvegBGBmLlz+Z4fv8D7LjgpMAchIHeCgpWsEL/WucpbVyy6+/xP+v0IQHI9EetGqzb/8nAntOygotrHd45c/Nd+ED5IrcNMtzdrKLXDnUyvj6H5tAiDea7WejoEIwMKHK9Yf/mLe34wQAACCLV0jSJZVN7LPanv5P7p09f9X6nPHAZAHbGxC+1ZARJbdf+5IsHbzVN4fKfXLt4B5me568Wqwc7FaMCAYt8D+8oypY/tiGNjHtsUwMIeOATAfBsblP/fMoO8VeAAAGlrqtAAGAARpSOr967/XyQbwxECmXVvmN+vq3Yu3meh+FQDnOO0wEAI1CFPP/I+i4tAWkGc9EPCXrX4EYNpg5M+AAn8hAjb4S95JABZyu/ztH4fPAyDgLgAC0AeIsKwedtH/H53W/yeboOn/ndRlXgOw6v5Xv2Hi+hP8i/qi4Scrd5z8z7k6TgnYL6Sq8/KsE/hJfMolfgMQgNmFD4tYW+TyAGDkCCmggjQky7oeEdgDsiy7AOhF6jRAH6QAeVsH19v3fXvTfWfXjtMIvE73wimBvo9fqQqGlI18tEdwLRdcm2DvHARg+0K4dMv80aI+RAYCIICgwQQAAeBAHtIut/PU+7drAF8NxkXZRf+vtO1RriWuQ+tJWV8PwMoD53/UutC+JXs5ZEElpwRKxXnnyUzcBgntSwJAG5T+DGQlAAth0YuJhQAAlHxAYQMH9AEyvnbUS66bgD0g89oP+iLtPqQM/wdbuvTR3vkylMLPP/Dm9+o0Wh7ba5EQwo+99/HUthPf9v4zWDFSC5jofgR/An/pwA/vRB8CIOsCZuavFOHyt39I8ABocBEAEYBwlQFcADjU69qqCLvA7lrif4D+bYn/A6Tr/4E6W0pf9vNg8nT7O4L7lOAZWLb/7BNFufac/1gW9lhg6a4zv+BKfwARZTUeoHQCsHRm/tVRvRdAADAiFJCwgUKXUa87qgcQw1ZF2sXXp30OO492WkraPtDOSQDM983lc74lAB7P0Us0TIyFu568uQepWFCsBdZ0Jpfveul4NS98Ai3trp8BPwGY2jK/o9gHP9mbngIAUGhwA5gIaKDeVSZtoIM0pE+f/V23qW0r2zawoUvaZfg/2OXI41y9awDWHZrmVr9eUC6bqMiUQL+PeCR/xszlsgCi+1Xm8tUvf6ZbSQbiYD8n3Nv+th6/WsZHxXweAIwSBTQAHFrqtACKziOdpw+0cUmUtak/+17FBvrQ9ToNW2mJdtCD7AkEtOzAb39WNtjxfH7CYeamM8b0zgWALVaWSJaT97z4frDj5CetBB6SnnqsdfARgJ0nQuPyX3douoyfKQgAQMIGc4wWdb0ACAAGadSj3JW3+4Iu+nDVQ6ct/bnsr21g19t1sCXKkYdttZR0/IwZ1//jlz8lIPsBuQrbmG8ucEogfk6HSdzw44XVwdbjV4OdXO1P8lOx58VDAKZ3nt5bZnwQ1xSABlsBEAEKOVDuSqMM+gAgtIGEHqSth3LItvUHO2mpbSDlOq/T2pawHyT0EvI5RQAY4rdewK/JhkzLTM48/81hwK/tbVfde+qWbnQ/gj/Bv2LwFy+MJgCS33r86oqti18v+3eaxQMAMAKY2EAjoOLSsct0e92HTotOW/qz7xN52Kmf1HbTtkY/KIMebCvytvkuqTPP2437Xrvd7PenB6CoSH8j6Wf5njf3jmo1cNkvnjLPZ7xbdPnXw/XNKYju/0ERgKWbjr0lU1Nl/iZwLpcHQAAE4CPg0S8PXUgATpa2dt+67bj3h/uzpctuUmaXo522mU6jHhJ9SB52N8/BjX/5j0/rESfTNfMGPHYpNATtsUuhmRK486mV+AFTplmgM2HILUGH4F+3Z0AIwM4T4fJNRx8p0+Vv/1qEAGhg0ACCNMBCJMogUSZ5V5kGH0kDfLSuXYa+tA7K6tifvrY0W+F+bH3kIWEPSN3Ovn/Y39ZFOfpEH7g+WQAobQIZUXLlf80A37cFE0Tg4DtXuiuE+S0B+4Wm8yZqGgP8EPzrBv5yPTtOflKHaT17CgAAAcCA1OU2qEAH5QApSF89+oREezuPfiDr1p++XrlGncc9idTlSEPqe0IZJPqw87qNLw2boa0tA/PxEx/gsHwkrvyhPSyPXzYegandZ7ZXOXrQYFu3tFlMVccXP6+p3YRk16lwyZYX3qvK5W//Tu0pAAAGQEckQANl0AHY6XLRzZvX/Ulbna9zf7hW2w76/qFjS9hUS90O5XY7raPTWeyE6xQZrwG46bGL9w4NSCQKlRGFyQfPnQw4JaDea52JqW0LPw848m830NaUaJlnUz2tVSfhAdCAkwV0oA+pwcjVHnqQ0NF59AGJOhACtBGJOkjU6Tz6gUTdMP2hD9c1oF9IrYNrgBQd9AWp26Ee+tCx+0Q5pK539Yd+RcoRcP6/Ie7/FJIlOzjKCBpS9cuq//k7E4zuV4MV7jUF30p3P2xfDOsY3EuvARDwAEAAeFCGPOq11Doohz4kykVCX4MWylwSZaIvaZ0fVX/2OXBunM+ux3VBQg8S+pC4d0i0Qz3yaA+p66UM7SF1ve4D9ZDiAfjykY/CwCwqSwEXegcaQhAeuxSaL9oFLV0XsKYzObnnlTcY158EoFKgd5Gf2YUPuy7/+v024QHQwAGwgZQ6AAf0kBcJoIFEO1uiHlLq0Q/K0vJl9Idz4DpsKdeJMlyzXWbX23nR1/eu63F+6Ohz6Dp9TrSHRBut7zqflAXc/98QgE8jabI4MKpf/ufvHAvWbp7qP1oeI407n1ppovu5Xr4s41RAZc/AqbBuLn/7V297AAAekAARSA08Ph2ADeoh0YerXteJvp1HmYBcUf2hH1/fAFRI6NvXJnk5cG2o1/3a9egTEn3rNiiz+9M66NfWwbX4dGMPAICDcgyIgJAAIQMH3xnJp0Ptl0cd8ia63+zCh5zz58i/ViP/7SfClTtO3lGH30jaNaR5AGxwAsi4QCdNFyAEQIMu+kMe9ZCucrSBFF3ooQx59AOpy6ELKTpIQ6Kd5HVblNtSt9P6rva6TOsiDYlz2Hlfe+jjWiB1OfqSumD5X/33jwj+YwL+8BJIQKfHLoXLt7303XHeJbBi/eEvdqP7RR9UqWykR/CtFfhW+RzI4tPZhQ/Ns5mGvDWpAwEQUABIiLQBBnW63FWGfqBn66Bvu1zrS9qnZ7fz6fXrD/2gPa4b5a5rgG6aRJ0+PwBX940ySFcd+tLSp6d1cO0ow73hmkTGHgDz+VkAB2XsSh8LUvT45XDZ/eeOjOOUQBzdb/ti8mtqVb78ee7WTzcs3TJ/tEmkWwgAQAjAgbwt+4EP9LWepFEOaddrYEKd1sV1+aQ+h6Tz9oc2WkoaB86rrwl1InU50pBoK3p2GjqQ6BPXj7yu9/UBXcgsbaSv4IZH3//7sQA7khc3eXn88qdLDr77QVNGJFkGRmY1tQ38Ok8gbj0Ql+6R2H4i8rhleYLrowMPAIBDJABIS9TnLbP703n0qaX0Dx1d7ku79DX4oS9ct92PXa7z6Bt9oF+RKLMldPR5dJ/Qhx4k9O1zQl/X6/OjvS6z29ht5RyxByD+BLDMHfMYXxv89PIn3TnJ+q1EzvM6NNMaO61RvwZ/nSYRIBEo4xmQVf7ysakG7sABAQCQAKxE+tLQ9UlpBxDSfUBf1+E8Lj3oa500Pa2v03I+nXf1octwPlynbqvTqLelSwd96jqkIUUHfaHMlqh36eoyrWf3IXooC2667+xaAn9LyM9PL4eG8K3pTOYB3broTm2Z32G2+WmQ75cuAwB4jnYSjV2nQuPyb/CuG3sKAMCgQUKndb0ul7TOA4B8+ij3Sbu/rHr6Gnxp9GWfQ+tDB1LX6TTuE9KljzKf1NeBfvQ5dL0ud+miDBLntPuQbwGYOADBukPTJAAtIQDRdkFZ99G0KQHz0RRZYNUP8F31BOh2AvQo/+/bT4TmWxMNJdMg9bf+16u/t8FBg4ZOZ9VDG5/UIAYd9O2qgw4kdJGHzNoW+pC6nS8NXUitZ4OtS0frSxoHdCFtPZRD6nrfeaHrk9KHTAGINM+BCQZE9//4uv8d/9vJx977eGrbiW/jRVBf2ZmY3n36aTOnu20xDORwgXyWslECAvtuB8nYdSIMth6/unr34m1NdPnbv3PXFIAGGR+IoDxNV9dJ2s6n9WHr2u3RFtKlr+vsel2XN+3rS/fj09Hl0IfUdTqdp17a6bauvAH/5+ABCIJg1UNnv2MWAjqAgt6B8fYOLNt/9onavsjkS5Uz868G2xbC7hERAJKAdoBtDUmVeR4bPurXJEA8ABgNAmggbfDwlfcDHLSzpW6HOl2m0756raPTPn1XOcpsqfvT6UH10E73JWk7r/X61UPXlrpP1MVlx66Gt2oCIB+TMZ8EJgFolRfAkDvZJfDQhUvBXU/erF8MlafXHZqWr6bFo/2YBAgZoCeg9FXuNQTjsm1g1qBU/sMo9gLMFMDc9UVhNuBo8IgBRC0i0/VIQ7r07f61ji+N/iC1HspsmabjqpMyXT5MGtdi92GfA3qQWh9lPql18/Qrc//mSBCAIAhWHjj/I472x3u0n/b/FQJYh++Ty+vNxE2X6H7GrY/Rvy3pDSgbAFt7vq3Hr47rx7ZAAAQUbE+ABhkAkS7TaVe9LnPp6npfWtq52uoyWyetTp/HbqfrkIa0+8xTDl1IX1/96nU76NrSvifdRtJw/yc9AIZUdibMdwHoBWifFwD/859eDpfveXNvlVMCZnHizPyV625/G/h1niSgtaBchkdCVvlvOvaWWShd7MC7Nr3FBOC57sgQgGIDh5336ely3UaX67RLB/W2FF2tr9PQ1WVZ0mgHqdu4ynR91rTWG0Wf0n+/cxjgF9e/eADkf217AOSJvHHfa7dzLUB7vQDGQyBbBR+9dLaKKQGzsGpm/lqwXUB+Pjo04PvSQ04JbJdQwjxog+QzML3z9H+S4fH+MwQgAgS4hwUsbG8AgAtSA44v7dJ1ldntdR76PunSdZWhvatOynQ58roM7W2pdXxptNH1KIPUdVnSedvpkb+XAMijbvaJY0RI2U5vgERVPPjOlRVbF79e1uvPTD8I+Mtc/+x894hJgJABH/ijvABvAEkAiZB4FrYev9p99psdNCvLb9f2AAAcQAAEjHC4QCdrmQ/U0trrOtc12H3aOnZ75CF1e5T5pNb1nSdrW+ihH7tvXY+0LXWbtDrzf7RG/vACdOMA9DwlnYk4PDAJQDsJgPzfhQTIB4XMlEDPQ1JogYlQOHvsOvCDAEDGRABg75MkARzFJ0fxee0hC0/NGpRCn/D6dhZ7AJRr2JAAyR/regIERDQhAOC4QAig5tLR+jrt0+2ng3a2dLWDjtTp+rxp9APp6s/Xp26DdD9p92Xn0V6X6zL5H4LUxf/X6H/tIQBBEKzpTJqPBJEAtJcA4H//08ufLOmc/7XsFBnFa8ysrJ45FgY4APq2JAng6HzEHhoTbGoUD3mN++zxANhEANMDAiR9Vv+76jUY+dK6nU5D3ye1rk5DX8r0gXJb6ra+NNpk6Q+6tkRblPvOlaaXqS0WdOqRv/xfJfrfsx/F6wD8BCBaic1FgS1fDwAS8PjlT2WXQNEroc0Ld2buOviDBIi0CYDkYxLAKYG8I1vqp3gGdpz8pC47YMrmCkIAvnz0yicYHcYAYROBCEDMiNIiA2lABsCypW6TVgcw1PpZ0nafyKM/5CGz9AkdXxvU4xw6jza21Do6naaHOq2v08ZbA+IGif8n/o+uRYA9D9+6Q9P0BJAE6O2DK+4+vXHoXQJrOpNT2xZ+HmwS8NeH8gT4SECCCPimAlDOKQECfwrw7zoVXnf5j/98f8/7PQiCeApAgALg4AALEASRejpAA09aOq1OA5pPT+tkSet+oG9L0cGBOt0uLZ1Wh74gcQ5IXe5K6zJ9Hl95PEWDET/+f+p/qokd0qkegPhhWdOZNKvCf3r5E8wLa0BgumUE4aeXw8kHz50MBv0AyprO5JLNR08Y8BcCQBJA1/6IXftuErQYGhLawC/4xe/mAhLxFIByDwMgEi5jG1Si9QHwCGgQMgTB8hJo8LptITmd4AI5rY80pNb3pbWu6Pj05Fpwvf3uQfeB/n3SpRufK7oeYwdtRwchQf/2PSTKxdb2SB/gDyn/X/H0KJKXjQBED9nyP3/nGMG+ZWCPKYAeeTmU6aGp9c98Jdc7aO3mKbOvetNzYWCOiAD0EIGiPQHiEaA3wA2EKSPkSoB5xNcjq/y3C/g34TsYuX5dAymbKQCZF1ZAYYBfTQsY0EC9SH1oYmCXRyNSA7BqXtrkLVDWgOZLGxDUgKnSBrwjYmH0ovP1kA3VxpAX3/WneDr09Wmgt0Fa8uZexQ6RLYwtdR42k+uQa3OQI1OOhZj29aNf9CMS9yRSEbv4fxzp5iIA4vY1WwTFE/BYd4U4CUGbCcHlMHjkUtidEuj/7jErqzfO/S7Y8GwYbAAB0DKLN0DWBnjWB5g1A7KFEO5/lyyCBAzxMaIsHyyizuAfe8piu9mFD9u0yr/fL1NPAZiRvwYSmSeOyAG8ApAJEmC1yVQXAZ4BK0mr0S/SMXiCPADY0s6HfrWOlOHQ5VnS6A9AK3mM4OWLelJu59FGZJZz2DrSzteHnMvWd+Tt/xvaoFzyOQlA91G66bGL9xL42wz81r0/cik03qG0KQH5zoBE9/vhs6E5vCRACIFeE+BYIGgIAElA/I2ELKBHnTDYdSJcumHuGdnh1A8U21QPAtCzEBCgMiiIoX0WqQHPNTrO0kdZOrhWbReUlXUNKefRAG9IRKSbKEfZkY+6nwPO+8B//oE3v0cSYAFhj5u8XfVLDr77wap7T91iP0tmmmD9038I1v8qDH54pEsAhAj0IwEJImBPCcAT4CMCkSeA3oDRjqYbRCxMrAn74WQ+uQjQAhaAhpFwJSsd1GN0SZltdD4KO+F/hL7xv9HlMcmLPDsDeQDwm7npvrNrSQLaBfJ9/98/vfzJ8m0vfRe7BEw0NQH+GPyFANgkgFMCHM2PaFpF5vtnFz4035fAi4syYYHEGgDl8o+BBGsBAPwOIgBdytETAAA7bO3MR94JDfjQ13IoAiBP0Rf2vvK1ycfe+7gvMLR8dNw2+8hakWWzx78f/Je/64K/kwTYRECvB9BpTgmQIAxGEJZumT9Kl38C73symAIAMKSBhg020sYus/Pol7JYcmDsrKYh7Lxtb12P9NAEQEZ64vaVIDFtAznebx/vx4NvXzN7/AH+WhovgMsboIFfp+0Fgr4pgegbAj1BhDgl0C4ScSLseqJ68I4FlgVsD4ANHIk8Rv+Q9ApkWpCXsCFslkEaoFZ6dh792qTNqWf/zwZdBGg9PyZ7w48XVjNqYB9AbKMX5JFLYbDzVNILACLgJQHPRlsENQGQtE0CuECwXaCe0QswM3+luxalnYF9XO/ntDLtAYhHhlj5r9z/WUFFQMnWtfMALspsXgH8X2Av5F121WTAp4d2BXgA8Gh1JmRrDaMGkgS4PCNL73ujO/cP8IdMkABOCRDQM4K8Z/Hh8l0vHafLH+/kbDKLBwBAEgNQRAxQnpAYsTpGnGhP2Qv8AGXYxs5LuasM+llkTA6wRuBXA+4C8D5aazdPmaiBbRzt8p7TP5x04MIfgw1zYfCDw70egR4icCTaJYDdAtFCwTh+gL0uAPloaiDrVsHUXQKuOAJ2mYoroAMNSdoDUiwfjW3MmpOWR/XzvpdTKhIeADXidwEKgN5Vp8tcQGWX2Xndvs1p28bIQ4ptYiAHKXCQLa1j2xO2L9ADoJ+wzgSjBtIT4PIESOCgQFZmF0UCElsFLRJgviWA7YJ91gZss4E9b55EoDJis/X41dW7F2/DzhP9JmK6vwU0AQBQAGwAFDboQE/2mTt1UA5Jr0BirYC2mbEtIjHCTgB2lY9tnrfM/h+o9l8u3AMQP29R1ECOitNHxS21j5kSwDSAlnk8AaneALVIMKs3gCSgcV6LpTPzrwbrDk3Hrx0mclsgyxSADT4AMCPVSnRbT+fRJq3MpaP1xy1t2w95SLlfPZJHuZF2nfLeoN60F3IBl3+UjvsZNBBQ1qfshoPvPuwcCbYU+GgL5RmRKQH5HkBR3oDEVwUtb0BWEsApgcaQgKkt8zuyvoeo57eA0wOgwUSlbUDq8QBogIlGmjGAYSQKiZGonUf5mEgNxjEgW/dm64he0Uf8f1B9j9ADcP2BW3ng/I8IfAr4SH6ue0UevhgGMvIuigRwSqAxAD7wlMHW41c/u+n5r15/wzA1jAW0B8AFEmlAhJGkATaLKKS1Q50L+OwyO4+2TZPaVnLtyEOaMmVDlBtpjfZ9955ok0KsYr3RTQEkH0lGDSQBSCWBe97oXRgoUwO5pwRcWwXFG8ApgYEBty6LGXeeCM2XJOnyT75ch8y5PAAugAEQuersMk0kYrBR89xxPUAKEqNTO4/ymkvbRnZe7OQqs+3XL59qU8tGsa2tcnMtZREAeUZX3f/qNxg1kETASwQwJaDXBCDdlwg81/3CYOq6AEUEOCXQOE/B8k1HHxkS69jcYQHtAQDwAKQSQKPnkTOOSNFfHolz6zZ2mZ3XunVIw264FuQhpVwDM8qNtOrQB6RuhzJb+nQS5xGSVSYBkGdPVusyaiBJgJcEyJSARPHjlEDjAHokHgbZMbL1+FXzTQkHeLFoeAvYHgCARAJU+ozIY+BSo3y012CENM6BdqKLunhdgX1OO+8Y0eKcZUh97eb6XffuKMtzbS476fb96hO6anoB5aUTAHlczYc5Dr5zxYCAbAvjQRvYz8A9L3enBGwi0NcTYMcLQDTBaGogjiaYZ0og2kK4bT4MzJF3iyD0uVUwL0lYsuWF9yTA2PAwxx58FtAegBiEBZAFvCzQ1fUxiABY1G4AGxyhO6h09WeX2flBz5W3nTmvfe+wG7wmsJHDri6b2teQRUfa2Daw8+gX1zyiOAC+R+16uQkd/Oi77xH8SYCcz4AslLzvN91gQDYJyLQ2wJ4SUKGEQQLMgsGsgYNUHIGhiABJQCYSsPNESJf/9fflKFO2BwAg4ZUAt5QReFbAMqAVgWMMSmrUHPeDc0Li3HYe5QVLG0jtvLkPdd1e26Vdl3Uv8b172uh6ndY27XcdlXgA4od53aFpEzXQHv0xT48AngE9JWATgcZ6A1JIACMIhsG2xXB60wvfit8TTIzUAtoDAMDQgKLTqLelCxBFB+VGKoDL0qd9DjuPvnW5XWbnte4gadwH2iIPKeX63lBupFWHPkybDOQh7iODbqLvNO/DqOMA9H1y126euuHR9//eOQoECFCSENzzYhj84Fe9awMaS70qnR0AACAASURBVAJkWiCFCNRl5X2Z17HzVEiXf983ZuEKeT0AACIb7Fx5X5kGKFcaIGoDaKI/EApIjJTtPMozSn1/5nwOwLV1XPeQpQz3qXXtsp5zqekG3c6erknUechHtR6A+FHuTCy7/9wRrgngdEAqERz1lECurYKcEsjkys9BIKa2LfycH/KJX4qlJbQHwAYfgAhAyFcPvX7Sbl9Uvzgv+kNepF1m57WuThs9BbbIQ5q+00bXqq6nXwcZsW2DNro8kY6ICe4ncV0O0oL+9HVXtgbA9XSbqIEc7XO073oGEDzpJ7JL4FjXEzDqKYF4q6B8T0ABvis9qnUBrZgSWAintp34tuudwLLRWyDNAwBw0eDRk7ZG3ACiTG0tIExrA/Bz9Y+6eBRsXVNc3ud8rvO7ynpsYPUb11vXEV+nTz8qz3LOuC+QFH0upCE956uJB+D6Q776kYuz9ATQE5DqCRCCsItTAkWPwCvpb3bhQ1kQfP0NwFTZFtAeAAAXQFbyMdAoEAFAQcbtHKNeuz3a2OWuPvR1oD6vxPl0O7vMPg/ykNJWXy/KjbTq9HnS0rq/NL1+dbgG6Pn6tfVEv1YeADz4qx46+x2SAJKAfiTAfFBI1gDYnoCidgkMMiUwlCegResCdpz8ZOmGuWf4BT+89aqTtgfAByAGMDTAO7a4AYRyybRRqqMuAb6uenWN8b1AT8mea0SdIjo9OhnqcE4AbuJ6Pe0TupFOoh91bdDV1wZdXabTcb3qR+pr5wHAz+DGfa/dbqIGutzBLOM0AZ4BiR4oHwESEuAiAk4yILEC9IFYAZB2zADrw0KaGEjaNSUQly2EgXxgyHUM8vXBHHPqlYzos1zftsVw5Y6Td+C3TlmtBb78zP/7ewMGmDd+tvshGgAN5K1Ruci0MtS5pKtMn7uo+vhaBUzV9er+fWn7erSeXefK63Nnbav7sdN23u5T6nFOuw55b33luwBSnv0v7H3layZqIF72lAR+3zOw81ROEnAkDH44CAlQ4YQzEwEPARjmy4NZgLZuOhLVb3bhQxMILOV3z6pyLaCnAAAYkF7gcC1AU6NbtLelASuMcD2Ew3dOHxAmyj3kBdeR0JURsHUfuh51ukynUQ+Zdt26nU6jLaSuk/5Qbkut11OXwwa19QDgJ7Dq3lO3BIwaSOD3Ab8qN1MCMuL3eQL6egOi4EHyiWJz+DwBJAGDeBeWbpk/ylX+eLPVR8IDAACD9AGLXZ/IK9BCOaTpz6q3z2HnE20dI12pRxs7LSCJ9howURa3i/R0HmlIZ9+KQLjq0dZIC5RxDZAJ3azXrTwyuFdvP57z154AyM/ERA38i/f+pd+cMOu5biAwHxQaZkrAJgGOCIIy5WAOFU5YewNi979r50DB3oC6jfJd17NtMVw2e/z79YE8Xom2ANYA2OCBvBOkLECJdQW8FDCiHNJVB/BySdPOcy5Xn67+vX1Y/dr32ZO378tub9crIPdeg2pjn8/bxjov7ADp7AfnsduW/TEg/eDlSq87ND0hoYNlO5ga9TFNezifAXE351oXcGTAdQH0BqR6A2bmrxgvXq4fO5XLtAA8ADaACJCgDNIGFztv9CyQsXXsPPr2SQ3qaAuJNpLXaVebtHrUQdr96XLdty7XaacOQNgmBqrc14d9v9CD9NXb5fZ11XIXQNrDz9DBBHwn4DtIIacEFqv7ouDOE+GSzUdP0OWf9jarRx08ADZY9AUXBVx2WzuPvmyZ0OtDHOy2dt4Gtyx5rZO4FsuTofVw3jR9p451f7aO3R/qbQk9SF99otw6d9y2MR4A9VtZ/ufvHKMngEQgExGQKYENz+X0BliLA6W9b12A+aAQpwQSXoBti+GKu09vVD9ZJmtsAfEAJMAiZYQaA4csnrNAxe4DeehB6vI4bZEJlEO62goo9yv31aPfflLaQ8fuS5frtJMsWPfn0vH14TuvT98u1+fS9yN6jfMA4He0bP/ZJzIBgGNkyHYtIw/yQaHtFU8JlLkuQLYXuubiyyjbevzq6t2Lt+F3Sll/CwzqAQDQQAKobIl6Iy3SEIOTVY426MvVFjqD1qFvSPTXk1fgPbDOAPfXcx1WH3a979pc9onbNtEDgJ/UTY9dvJdg3jIwH4bQ7XkjDIrYJSAegYRXIFooGC8OHGRdgL1gUC0WHCRegGmT8rGhtA8RDVi3dGb+1WDdoWn8PimbYYFBPAAxgKitfAAgW9q6/eqFFNhtYqLgqrOAsad/BeB2vz261ogf9b52Up5FJ+364/bqOlGWVaZdX+Lc1jka6wHAT+vzD7z5PZIAkoBMz4AsIH3g7S5451og6JgS8JGAoacEPESg1iRgIZzeeXovfpOUzbJA7AFwgCsAyAkwFvBqoEE7W6IfyES91R/qRBfpfhL9Qhp9T7/oK6ErNlAgqdNZ9H06adfRc37ren31dnmec8dtm+wBwM9MogYGDxMEM4HgMCPocWkrUwICqLlIgGOXAEhAwhsQxQ7o5w1InRLwkIBhAgcNOKpP/WSx9Ln1+NUVWxe/jt8iZfMsMIgHAGADKYCi0wKcMchYwXagB2nr6b5iHUd/djvo2lKDONpA9uha94H6rPr6XL626EskdHxS66CdrZu3XLdvvAeg+3PrTEjUQIYOJgnKTILEG7DrTPqUgHxnoOfI4Q3oRwL6hhHWRKBmUwLbT4RLNx17K7jzqZXNgzxesbZA7AGwRp4AiqwA4wI/Xx/ePvXo23U9rrJ+5MDTxntt+hpUOou+TwflttQ2g00goat1UOaU0X0m2lv3jjrIRgQC0g9rWlr2Gy87eOkPmUFgXEa0vI/BY0OYKYFnc3oDcpCAMZ0SWL7p6CNpv0XWNccCo/IAAKQEbHRaA1oMRJaXIK2Nry9dHqcVgNvn0ueI9a1r1eX6unW5Tvt0pNw+v26HtC31NaK9LdHGeW7r/qEby3GYArj+U+tMMGogvQC5CaBMCYhLPteUgCYBko4WBkLa2wb7eQOaMCUguwi2Hr86OfP8N6//5phqugVK8QAoIIrBxwH6GsR0Gm0AfshD2uVxW2sEbPStMm9bAW3Hdafp+64H5fr8af2k1bn6SpTZZMO+X31P40UAuj/FVZt/+TkTNZAj48FHxm203T0vc0ogZa3Aki0vvCe/raYDHq8/aQHxAGigs8EH4JJWbutAV6Rd58vrcp3W15alPNZRQIfrQR2kfX2+ct81aH2fji7Xad3WlU4ri+uy3KPSiduBFIwjATCP97pD04waSG9Abm/Afb/pzvuLN0C2DLqOYdYFFDolUNK6gJ0nQrr8k6A5TjnxAAAYbJkGnBrMfHroL9YF8FQ1+rdHx9YoP75Oqzy+D+v6tb7RieoT9rDaZOkr0V4BOMoh9TnRL6RLJ1Em/Y4tATC/0M6EiRrYxtEs73lw78dPZErgWBj8l7+7Pi1gTw+kkgA9PWDHDLC+MGgIgeOjQnL++NCLAV3pURKBhXB60wvfGifA470kLWA8AAJS0RGDCkbvGcvRDlL6Q9qW9rlQr9s0MY378Mks92239bWBnm0nnYeOVx75KEw+DWOX60wsO/Dbn+UeCRJABwfQcbCdbCvd9WIvAdCegR4SILsGNPgjbZMA1xcGHSTA7BIAEXABvy4rmARILH+6/Mfubei6oXgRoAJsDSJZ0gAY0cXhKtN9uep1WRPTuHd9n74y3/259H26rnKUQer+7Osacw/A9cf9hoPvPszvB3BKIDcR1FMC8AJAYnqghwgA+G2pvylQbxIwtW3h590P+XQmrv+KmBpHCwzrAQDAAHAgNdigDDJLG92+KWncH6S+bpRB6jqdRj2k1On6tDR0IdGHLdFHawiA/HBXHjj/o9wAMA6jWd7DcN4M+aCQjMbLmBKQ87iOzNMB4hUYxhswH05tO/HtcQQ63pPbAmYXQAGjf4AMwEVLX9rVxqdb5/J+96HrffehdQZNo50tvecc7zUAvQ/8TfedXUsSQE/AQM/AzlPjPSUwu/ChbKPt/dWwZJwtAA9AGmigzgckUm7Xucp0P/3qtW6d0/3uw6733Yvo+epGUW7O1zYCID/kVfe/+g1GDSQJGIQELL3vjeu7BDAVANngKYGlG+ae6br8xxnqeG8uC+g1AAArG4zsvAuQspbpvtAGUtc1Jd3v2lEPKfdVh3uT62nVFIB++OWTpYwaSBIwCAkIZEpAVu+Pw5TA7Hy4csfJO/Rvg+l2WQAeAA1KGqyypPu19fVhg6FPr195v3p9faNIZzm/Pq9L31Wm24wi3VoCID9x4+48+M6VgUCA8+rDzas33X4SPVCmBHKRgBrtEthu1gl8uGL94S+2C+54t7YF7DUALiBylWlA0vVSruuQt8vQBrKfnq/9MO30uYdJ4xqq7iP3+ds4BaB/ABLZbMnBdz8wJEBe6jxogxzPgJkSENe/TQQwHWDLxI6BZ7vbBuOtg/YuAWunQBxO2LNQcGY+DOTwhhW+vjhw6Zb5o8HazVNBwFX++n3QxrSeAgCADCNdbV1lGtClHoddjrzuw07rPPQhdd2o0rpfnBcyrU7rpOnpOp1Ge1tm1Wm1ByD+sa87NL3koQuXCP4kQAM9A/JBIYn9LyQgCxFIkIDIK6BJQOLzwiAF9meG+5CAFCKwbPb49+Nnn4nWW6BoAmCDUZ58mm4RdbqPYdI2wOq+7Lqs+bQ+dJ1O+/rOoiNtSQDw81/Tmbzh0ff/np4AkoCBSIB4DbafKIcEZAkn7PIGzMxfmVr/zFfwyFPSAmIBrAHwgUmZ5WnnKqJO95E3nRVUB9XT12P3oet02tZDPqsOCYD1Dlh2/7kjAwNADtcxzzGmRGPPG93vB2TxBMj0QMIbMKIpgW0L4ZLNR09wlb/1Y2fWWIAegN41CwBQAGoZMu0cuk6ncZ229OmIXuJo+xoA1zvARA0kmHMtwKDPgEwJ/LDAKYH408KYDlBrA/quCzgWTm2Z3+F6zllGC4gFQAASwGADBfNJ4BwXe5AAuF8Cqx+5OMtR+piO0gcF9rztti9WPCUwf+Wzm57/qvsJZykt0LUACYA1Kh4XcM9yHyQA/tfAqofOfodrAkgChiKCMiUggYKyTAkkpgPU4kC9QLDHG6C+Lqi8AUs3HXuru8rf/3yzhhYQC5AAkADwl+CxgEQNDA5e+HQoEMg7cqT+eEw/SKwD+V/KlMCGZ4vzBvSQAD0lAJc/t/d5ftIstixAAkACYD0SzGoLfGHvK1+LowYSnMcDnMv8PwoR+MnF7v787//tcN4AIRLxEX1mWLYNyrFx7uMVWxe/zr39+tfLdD8LkACQAPR7Rlpfv+reU7cEEjWwTODgucaPbNzzcoFTAkIGugsDjcv/zqdWtv6HSgPktgAJAAlA7oemjQ0kdLCJGkhgHj9gLut/Kt6A+37TjQA4UOAge6vgs+HyTUcf4Ra/Nr6RirlnEgASgGKepDb0cudTKyceffc9egK4OHCoZ0CmBGaOhcGgUwKyDmD903+Y3vTCt9rws+M9js4CJAAkAKN7usax57WbpyYfPHdyKAAoa8TJ89TbWzHolMDGud8Fdz158zj+vHhP5VqABIAEoNwnbkzOtvzP3zlGEkBPwNDPgJkSONK7OFC2D9ofE/rB4XDphmf/mgv9xuQlUoPbIAEgAajBY9jMS1i2/+wTQwMAR+n1HqWX8f95KNuUwPI/O3xHM38pvOq6WoAEgASgrs9mI67rpscu3ksSQE9AIc/Arhd7dwl8/5Bs8aPLvxFvg+ZdJAkACUDzntqaXfHnH3jze4UAQBmjTZ6j3h6HfW91Xf/RAsGlG+ae4Sr/mv3gx+hyDAE48lH4ZR7tswFDARf3S75x32u3kwTQE1DIM3Dgwh9ljz9d/sX9PtmT2wIkAC0mP4c/Ct1PBUtzW8BsyRIXLkfYtEFBz8DybS99N/eDyAa0QA4LkACQAOR4XKjaY4E1nUkzUhOXrczXbj/RDf1aEAiQULTbq7Ds/nNH+GGfnl8dCwqyAAkACUBBj1I7uzHfW0dUN5CAmXmSABKg4jwh+89/sGL94S+28xfGux6lBUgASABG+XyNdd9mT7bs18YhRAAkYNNcGMhcLoGwOCBsqy0lhPDBC59ObTvx7bH+QfHmSrcACQAJQOkPXfNP2Jkwq7PxDXcQAJGxN+BQ92MtJAEkAIURl0vhsgO//Rl3BTT/DVKXOyABIAGoy7PYjOtYu3lqyeajJwIBfx2pzUkC/jY0eiQBJAGFkYCL4ZKHLlxiKOBmvC7qfpUkACQAdX9G63N9azdPmU+vGvC3CICQAR8JkDoJ+VogCLCvdi8OlCkBfgyoPq+Gpl4JCQAJQFOf3VKve9XmX37ORGT7oXyS9Uj3WJ+TBEiQF5IA2qCwZ+BSaMJRr+lMlvpj4MnGxgIkACQAY/Mwj+pGzArsmfkrEpwl2IBvskckwJ4KSPMEyMdc7nuDAFgYALbcC2DseClc0jn/a04JjOrXP979kgCQAIz3Ez7U3XUmptY/85Vg49zHgXyDHQQgJgHaG/CrbGsCZJHgPa+TBJAEFPQMXDL9LDt46Q+TM89/c6jHnY1bZwESABKA1j30WW/YvFAB/jEBiLwAw5AA2SrIqIEFASC9AHpa6TP7Xj+Y9fmmHi1AAkACwF+BwwImup/s5RfgT4B/P09AyrqAeIugihrIkTCJQMHPgJkSuPOplY7HmkW0QMICJAAkAIkHgpkgWHH36Y3BzLEwMARgxCRgdoEAWDAA6hFxa9MH37myYuvi1/l7pgXSLEACQAKQ9ny0rm75pqOPJMFfCIAiAT3egGe7CwPjKYEcOwTiqIHHGDqYJKBAIthdFxD85GI4tfvM9iDoTLTuh8wbzmQBEgASgEwPyvgrdSamti383IB/YvQPAjAXLQLEFEDKWoAs2wTj6YBD3Y8IyQJDCRj0k4tdMkBJOxTxDDx8KZx88NzJgFMC4/8KG+AOv/Srj37/5SMtBsE23zs/B3z9F2Oi+wnw6yOeAhgxCRAyIF8SlBgDD7xN4CsC+NhH5FW61JUH37ny2U3Pf/X6E88ULRAEJAAtJj8kAEEgn1o10f1mLfAHEchDAuxpgDyeAJAACS5EEkASNAoC8/DF0Kxv4ZQAsT+yAAkACUB7fwzrDk2b6H4Ae590kQApM3EBMCXgWQswCAn4QRQ6eBQgwD5bTy7MlMDazVPt/eHzzmEBEgASADwLrZI3/HhhdTC78GEwM590+9eGBBwOgz0SNTBy4RK4Ww/cha4POfjOFRPkqlW/et6sbQESABIA+5kY+7x58W09frUL/kIASiQBaaGDsTAQ0wEiJWogwZ82KPIZAKl8+FK4bPb497lLYOxfed4bJAEgAfA+HONYYfZGz8xfC2TOf3a+exgCkJEEiIfANSWQmA6wdwio7wbEUwKe0ME2CZDFgfe8TAAsEgDZV/d5EiIgJOD+c0dkLcw4/t55T+kWIAEgAUh/QsaodmrbiW/HoA/whxw5CVDfDYhJgBU1EJ8TdpGAnadIAgjcI3sGlhx89wPz0asx+r3zVvpbgASABKD/UzIGGsbVKWAfA31a2rcjQEb/Hg9A3pDBMQmIPAEAf0gzDSAhg6OwweIJkKiBBEHaYITPwModJ+8Yg587byGjBUgASAAyPirNVZveeXpvNuDXpKAGJEDIQEwEooBBQkBGCADsu+WBmB6+GE7sOfcrTgk0932X58pJAEgA8jwvjdM10f1k5Jxp5K8JANIOImC8ACV5Apwk4LkweKjlQEUSNDoiKGGZ95//ILjryZu5QLBxr7xcF0wCQAKQ64FpjnJnYumW+aPBtoWu63xgAiBEoE4kIJoSYNTA0QFg28nFwQufmo8oHbzwqVk305wfPa80pwVIAEgAcj4yDVBf05lcOjP/qpkzl9E/jlJJQPQBId/uAG/UQM+agIQnACTgSBjc9xsCYdsBe8T3v2z/2SeCNZ3JBvzyeYk5LUACQAKQ85Gpufq6Q9NLtrzwXgz6AH/IKkhA1i8I9lsY6CIB6xk1kOsWRjwd9PDFcMlDFy51pwRq/vvn5eWyAAkACUCuB6bOynF0P4C9T44bCfjB4XDpfW/QEzDikXDbicaSBy78x/SmF75V53cAry2fBUgASADyPTE11V5176lbAonu5wN9u3xkJCDP4sA+3w8Qj4CM8OWQ0b8+4t0B0XSA5CV0MEGQNhjxM/CZfa8f5JRATV+EOS+LBIAEIOcjUz9185lTE91P5vuj6H5ZpJcEOBb9uRYCuspy7RBQBMCsCYgiBsoXAc3RJ1qgiREgBCAiASIZNZAEYMQEQEjmkn3n3g3ufGpl/d4GvKI8FiABIAHI87zUTte4JLOAvU/HSwI8q/9doG+XVUoCDoUBowaSBJRAApYdvPSHyZnnv1m7lwIvKLMFSABIADI/LHVTXL7tpe/mGvE3lgSoqQB7OiAxFQBPQBQ1kLECSARKIALL97y5l/EC6vZ2zHY9JAAkANmelJppTW2Z31EI+IMUVO4JUB8Q0tMBZh2AY0rAXg+QIAJR1EDxTJAEkASUQAKWdM7/mlMCNXtJZrgcEgASgAyPSb1Ulm86+kih4D/OJEC+XHjgwh+5OHDEW+VKANna/w8PvnPFrMep1+uCV5NiARIAEoCUx6N+VUs3zD0zEvAHCRDp9QYMuDgw15qAIj0B0ZSAeBQeeJsjYYJ0Kc/A1O4z2zklUL93p+uKSABIAFzPRf3KEtH9cqz018CeJ10qCXBFDcyxQyB1OiAiAbKrgCSgFACs/Ui9BCI0+eC5k5wSqN9r1L4iEgASAPuZqF9+TWeyG90vAn4B5zQwL6p+UBIgI357Z4DkUz0BmgQI+FueAL0uwLVNUJMA2Q6YWBMAEhBFDey3LoD16USB9slmn4PvXJla/8xX6vdC4RXBAk4C8Ks+oMj68MtHUmzUFPsc/ijEc1BbuWrzLz8XzC58GH/UJw34R1E3KAnoIQBzYTAjIG8dG+bCIHEI8KtDPvqTOHSsAE+cACEDQgBiEhAtClx3qBtMaM/Z9Bd4CSNEjpJbsibhoYvhirtPb+SUQD1fsTEBENDi0S4b1J0ArFh/+IvBzPyVysAfhKIwEiCeAYsACCFIEADJKwIg6QQBEEKQQgL0NkEfCRAPAaMGkgSVRfTk88J7frMYrN08VU8YbO9VGQJA4G8X8OP/XWcCsHr34m3d0L593P0A6VHLUZOAHiKQhwRYcQIykYBDjBpYFgDyPF2ytf/8B5wSqBfZoAegxZ6PuhIAE13MhPatCfiDXHhJwCBRA7NMCYyYBMiUwM4XORImQJfzDDx8yZzHBPCqFw629mroASABqNXDP7XtxLdTF/gBjKuSTSUBWBcQfzfgUBgIAZBj22I5AECgpZ2jZ2DZ/eeOcEqg+lcvPQAkANU/hdEVmMVCVQF7nvM2nQSYxYFqYaCQALknAjRtUOYzsP/8B2adT23eQO27EHoASABq8dR3o/vl/JpfHtAuWrdqEtCzODBaGBiHDs6xQwCeAEYNJAEokwDIuQ5c+OPKHSfvqMVLqIUXQQ8ACUDFj31nYmrbws8Tbn8B1zTArlO9kwh44gBga6AzTkCONQGyKwA7BRI7BLA7QMA/w8JA1zZB6bdfwCDug08nCrRPbvss3XXmF8GazmTFL6PWnZ4eABKACh/6zsSSzUdP+EPvpoXlbUKdhwjEAYF0cCBJO7YImt0B1mJAA/4qUmCCBHi2Cf7gV90YAAgYFIO/BAmKAgV9P1oTIOThvt90PyQkYMaDNhj1MyDegP3nPwjuevLmCl9IrTs1PQAkANU89Gs3Ty3ddOytYHYhJfZ+E0C+3zU2lAQIYSAJIPCPGvjRP6YeDl741CwEruat1Lqz0gNAAlD+Q3/nUytNaF+n+7wfoDaxfpQkQLwDkTegaE+AeAn2vUUQBEhRjvZZEBIgNv7JxXDZ/rNPMHrg6F/N9ACQAIz+KVNnuOHHC6tNdL/WgD8IS14S4JkSwNx/j8xBAnSgoMT2QMd0AKIGEvxGC360b499l+w79y6nBNTLcwRJegBIAEbwWLm7NFHAth6/Or5z/gB7n/SQgMSHggpYF5DqCVCLA7EeoB8JkF0Cu870vKC5NoDrI0b9DCx54MJ/TG964VvuNwpLh7UAPQAkAMM+Q5nar9i6+PVAovu1buTvIgMeIlDk4sBRkIC7XyYJ4Ei93Gcgmhb4zL7XD3JKINOrNpcSPQAkALkemEGUzaIegr+12LFOJMDaIWB2BTimA8QTsP1EuQBAwKW9o2dgSef8rzklMMgb2N+GHgASAP/TUUDNstnj3+eo3/ICmDgAUjYgCZCvB+otgz3rAfosDDQxAmQqQE8HKBIgi/8S2wQdUQMJzATmMp+ByBMgUwLGm1jAu4ldBAE9ACQAI/sdTO88vZfgnwL0PgJQ1JqArNMAsijQLAxUJKBnXYBFAoTElAkAPBftLc9ARASW73lzL6cEhn91kwCQAAz/FDl6MNH9ON+v3P6e0X4TSQACBonn4YELBCaSk/KfgQMX/mimBO58aqXj9cOijBYgASAByPioZFXrTCzdMn+UI3/L7R+ToZxEoIiFgaPwBIAEMGpg+eBHwtG1uXgDDr5z5bObnv9q1rcT9ZIWIAFoLwH40t9+FCafhmFzEt1vZv5Vgr8P/FFeIxLg/XhQhukAkABGDSQJqJiUmC+JBp2JYV9hbWtPAkACUMwzv+7QdLui+wHMB5UVkABx2Se8Af2+IJiHBBxm1MCKQbDtazImHzx3MuCUQK73OQkACUCuB8albKL7zS58yJF/XjJQFAnIGTVwVCSAUQPpCaiSBMmUwP7zV0zAMdeLimU9FiABIAHoeSjyFKy699Qt7QztmxfsffoNIAGpoYOj3QGYDhDJqIEkAlURgWiXgNl+zCmBvq9yEgASgL4PiU8hiu6nVrr7QI7l6d4RiwSYOAFWmd4t4F0Y6PEE9HxSWL4bYE8HeD4jjC2CmgT44gRE1rzxCAAAIABJREFUJGDphmf/evm2l77bdpc077/aUMnL7j93JFi7ecr3/mI54wB8+VckAAP9Dkx8bkb3K478pIK6/X0AO28FBkKQIAkYZA4JDOQ5EtMBQ5AAiRL4/UPh8j87fEewpjMpe7QNQXzw7WsEwmqBsNX233/+A+OlHOgtN/6NvvR3H/2+zSDY5nsfcBdAZ8KM7uJtbRzdp4/uc9inliRARQuENwAfEYo9AYfCYOPc71asP/xF+5W5evfibRK9rdUgVJU7nOftTsUcuPBH886yH07mAxIAegBy/QymtszvKAzwSCJ6PQgNJAFLN8w901197d6GZRaJHnznSnDgwh9JBOgNqOoZmNhz7lecEki+7kkASACST4Q315lYvunoIwT/HCP6QQnOUCTAsw5g6OkAtyfAuPwzLLZatfmXn1vy0IVLVb38eV4SD0NA95//wOWp8r72xryCBIAEINMjbkZ5gwIa2/WO9LPYZCgi4FgXUCQJ2Dj3O7Pdyiyyco/8ex6sO59aacK3Riu1CcoE5UqegQMX/mi+UJqBuPY8w2NWQAJAAtDnke5MMLpfCaN+HyGoEwmQqIE/OBwu2Xz0RJrLP/WBWtOZNAFbOD/NrYIVPwNLd535RXfBauoTO9aVJAAkAP4H/Hp0v2t0/ZMEBD88Ehazv7ozYbZoVQwAlYw+ec+1Ij4yLdXmKQESABIAJwGQOdsgju4ne9I1ADJfuj1SPQHi7tdbA115a0ogbTrgh2rLILYJrn/6D90Iaxnd/c6nKln4mX2vHyQIcxqg8mfgwbevmW3NycezFTlDAA5bIMh8mNgeOKb28G8DXNOZZFx/TXhqkk6AvAb8LGmLAJjgQIgTIFKBfpyWgEHPKpd/8e/Eqd1ntlcOAByV12pUXtXzsGz/2SckfkXxT3l9e6QHwCI/LQoM5CEAnYmlm469lRzh1gQAE16Ill5TySTAbPsc8Utx1UNnv1PVS5/npQfC7A6Qhak/uRgu2Xfu3eCuJ2+uL2QXe2UkACQAiSdq6Zb5owT/mpOLoklAwhsQeQJm5kv9zvqN+167nXECCMaVEzIhAQ9c+I/Jmee/mXgxjmmGBIAEIH60GeGv5sCvPSAjIwHPhWbXRwWfVf3spue/yqiBJAGVkQAJVKW2qJo1KiP2fsUv34oSJAAkAN1HT+K3z8xf4ei/3STAuPwr/ICKidsuUQMfuMB5aa5NqPwZMHErKiDDZfEBEgASAPOsMcRvg4C/ME8AogYek1j+H5uP99RgxGOiBh5894PKRoIE3sqBt1b/+4PvXOn+NsqC5fLOQwJAAhAE6w5NCwBw9N9QEiCEYIgpAbPos26jHIlBwdDBBOIakTGzY8V86bI8gB71mUgASACCnrl/ARN7lMn8dZvU1T5eEuCKC9DdOmi+71CDUb/zRbd285SJGmhPBzCfJAa0R2n2MM9j3ciy88eTrdAQgDHd5x7v5ef9OeMaxNsAr4f6FeDn0WgbpJIAFQtg49zHjVjpvKYzyaiBXBhYqymB/edL3SGTDcoH04oJgIAkj1bZoEsAxP1P0B8v4tOHBEiQJxPpcbB3RgWtOhMmSEuN3MG1AiTaJekBKMkeK+4+vbHpgYNIANpLfAwBMF/FIgEYLwIg/08PCVi64dm/rgDBCznl8j1v7iXw0htQq2dgz28Wgwp3zQz7wyIBaDkBMHPAJADjRwAcJGAc4p1//oE3v1crAChptMl7rinxkdgB+89f6X4nY1g4Lr89CUDLCYD5tCsJwHgSAJCAjXO/u+HHC6vLf72M5oyMGlhTMGwrGRIS8NDF6EuZo3nmR9UrCUDbCcCWF97jGoDxXfg4tW3h502fp3S9/L6w95WvBQ++fY0jY5KBOj0DE3vO/apJUwIkAC0nAN3of+MLgO0lN/PXVu44eYcLPMelLI4a2NaRJ++7ksV/fQnH/vMfNGVKgASg7QRAAgDJgjE9DcB8g+0xf01I3Yr1h784LkDvv4/OhJna2H8+GTWQ++KTwEh7lG+PAxf+aOKr+B/eWtSQAJAA/M4E/fGsGvetJme5f6V9lbZZumHumWDMopX1fVPe+dRKEzVQgI4HbVCjZ8BMCdT490gC0HICYIIAEfy92+aqBPNc556Zv7Zs9vj3+4LluCqs3TxlPtxSo5c/yUjLCZlM0XR3CXxQV48cCUDbCYCMGEkAmk0AZhc+bMqc42j5R2cikH3Z8tIlEaAnoC7PwIELf5TPXJuYK6P9AeTunQSg5QRgeufpvSQA9XTnZ/m/LN0yf7R1Lv8+r7llB377MxKAlo++6wL++joeuhgu3XXmF3X6vZIAtJwAmHjw9AA00gPQdfl3JvrgYSurTdRA/fJlmh6BOjwDD10Ml+w7925w15M31+GHSQLQcgJg9ohjJwCJQDOIwMx8YyOPlfnSW3ng/I/oCaAnoI7PgEwJ1CEyJwlA6wlAEBg38sz8tSwuZ+pUO11gFm3WeFVxmQCf5Vw33Xd2bR0BgNdEYhLcdyH8zL7XD1YZOIgEgAQgMEyUo/96j/5n5sOpLfM7soAedZIWWLF18esmamAdXMC8Bk5FWM+A2b1S0ZQACQAJwH++LTsTwcY5xgOoKwmamb+yevfibUlYYy6PBWSXhLhdOfLmyLsWz8B9F0LxAHSPt0N5Ns16rDwPdQG6JAAkAOYxMqOkugJgi69r6aZjbwXrDk0X8FtvfRdmL7ZEDbRGYMyTFJT+DMTgn7S9mRKQAVlJfyQAJADxo2a+DNhisK3b+ga6/ONHs7DEqs2//FwgJICxAuiKr5IIagJw39thIEd0PWZK4M6nVhb20Kd0RAJAAhA/HiauOglAtWsBZubDYOPcx8YjU+JIIH4I2pBg1MAYbAA6lMmR+Mjt4SIAIAEi95+/8tlNz3911D9HEgASgMQzZqJVkQRURgLE5W9GqYn/CjOFW2BNZ3LywXMnR/6ir3KUyXPXl+j4CAC8AUb+JpzafWb7KD/nTQJAAmC9WzsT5itWJAGlk4Dlm44+Msofu/WPZjYIAvOxFgJlfYFyXP83GQmA7F6Z3PPKG8GIpgRIAEgAnEBgosyRBJRDAjbOfVzFCmDnP76FhWbh1bgCDe+rnuQmKwG47zfd9QH7z0fBv4pdIEgCQALgfeWTBIw+6M+SLS+8R5e/9xEsrcK4WgmW9QTLcfy/5CEA+4QEdI8Vd5/eWKSXkASABCD1JWuCBM3MlTMSbpnHYemGZ/+6yB9z6j+SlX0tsOqhs9/hmoCSF8ONI7hnuac8BCACf5CA5bteOl5U9EASABKAvi9GsxqV3wsohgTNHAuDmflrdfw0aN8HoQUKq+5/9RskASQBI38GBiUA+94KAzn2n/+giE+AkwCQAGR6ra+699Qtwcz8lbrtlW/c9Wyc+53ZbpnJ6lSqwgISdZFRA0kCRkoChiUAQgL2nA27XwQd/FdCAkACkPHp6UwY4Jpd+LBxoFuTqYWpbQs/p8s/4+NWsVoUNfDKSEEgi6uYOuO5LqEIAhB5A6Z3n3560CkBEgASgHyvWtmOIt8NqAmoNuU6Vu44eQfBP9+jVrW2IbyMGjieAFw1sSqQAIgnYMmeVweaEiABIAHI/55du3nKxKgnCeizLmAuDGYXPjSjyfxWZos6WGDdoekl+869S08ApwQKfQYKJgDBnjfC4J7Xw+V/dvg/BxrZ/0gASACyPy0Jzc4Evx2Qvk1w6Zb5oxz1Jx6aZmYYNZBegKI9BqMgABEJMFMCazqTWX5sJAAkAFmeE49OZ8LMa9MTcN0TIKv8N859POziHI/BWVyVBdZ0Jpfdf+6IGQXKy1sDAvO0R97nIZUARMF/sP1PxQEwOwCwEwByz9nQeACEAEQkYPKeF9/P4nkUAvClv02CIPPtsIf8nwt5nZoQtiQBXRIwu/BhEdtzCvnHsJOCLdCZWLb/7BMJ8NcvfqaTRID28NsjEfM/+hpgT1kUAEgIQHxE2wAN6AvwR8c9/y0Gf5kKCHadCYPdL/fdbkwPQBLsv3y4PfnCCIC8ZRk18FhopkQyut4KRiZ2V6IFGDXQ8oAQ6P1A77NND9i7SMCQBEBIwK4zoQk4tnbzlOsnQgLQHsC3yU2hBEDmutv8JUG6/F2vl/EtMx/M8r3cWZ4fENtmsxIJQLDzH0IJOR7c9eTN9i+SBIAEwH4mhsqbj9rMzF9ryva8oa9zZj76SMdQZmPjBlrgxn2v3c7pAHoDBnoGSiYAwd0vh8GOk5+Y0O7qt0YCQAKgHodikmYOvAWhg5fOzL86aACOYizNXqq2gITJZtRAkoDcJKAKAiAkYPuLoVmzFU0JkACQAIzkHWpWoI5x6OCpLfM7RmI4dto4CxjCe/AdRg1smxt/mPutkAAICTBxXO568mYSABKAkb1wzWduJXTwhjH6muDM/BXzcaSRWY0dN9ECcdTAhy5y/nsYYGxL24oJQLDtlJkSsBeGMd8eQlDwIkDPa1siqckCFL1N0CYEDckb1rzu0LTnTlncdgvc+dTKJQ9duBQwLkCSBNEevfZIJQCOOAB6GyC2/kHKFkC9DXBXtA0w2gUgiwDNGoBoCsCAvxCA7SdCAXwBAg38zLfDHuUQAAGFNZ1JM1+uSUDD0l2Xf2ei7RjH++9jgbWbp5Z0zv/azAkngr1cCA0xYBntYJ4B17Y/lEXb/3QgIAT9gQT4Q2oCgDgAAvw4tr9o5v/F/R8TgG2nDPgLEPBopw36vM0KrBYSsGHumYQnoAkkYOPcxyu2Ln6dIX0LfBbGvStEDSTYE+y9zwDA3iVJAEhIyiEkpb+KTVCKJgD/pmPdvbPy9UP+0QK5LRBFDfQCAD0C7faIuIAfZSQAJABjSgDkPTq98/TeunsCzFaZ3C99NqAFtAU6E8v3vLm33UBHouP+/wPsXZIEgARgjAmAvCJrGzp449zHdrAM/UpnmhbIa4HPP/Dm99wgQHBsr11cwI8yEgASgDEnAPISNUC7qT5bBGW3gtnOlfcNT31aoI8FTJhs2eLGKQHawDwDAHuXJAEgAWgBAZB3ptlTX4OogWZtQsBV/n1wjNVDWMAsJn3w7WskASRCQd9tgIoEmC2A0VcAuQuAOxYK3LUxxOusuKar7j11S6CjBpYZF2Dj3MdmdFbc7bAnWsBrAYkaaEIH0xPQck+Aa+QflQngYwugSJsAYOsfpC8OALYAiuQ2QBIHB3HwvqjKrjCudyEBAv5lHRvnfmdCFpd9szxfqy0QRQ3shg4mEWgpEUghABr8bQKw560wAPBDggCY/f8SBCgKBJSRACAYENzuzCfd72Nrj0MfhbV7ES/ZfPTEyAnApmOhiUmwpjNZOwPwglphAQmTHUcNJAloIQmoAwFYZCTAlkVCFJKHqI9fqiMBkLf/irtPbxwZCeAq/1YAbCNuElEDSQBIABJrAlKmAEbsAcBoFxKAYXsHWH/dS+CyhatM27KKepwTUq6ntu9JcZOaUXqB0wHGu8BY/rX9n7fywsQLtec3i1wY2LaFgXXwAJzq8QDYIAWwEKnT0NNlOs16NdLWo+4oXYV9cM5Y1tUDoIFAFk0t3TJ/dBiPgAT14Vy/tirT9bJAZ2LZgd/+jCSgTSSgHgQgBoNogZgN4qy/Tny0LWAnXabTdazHNUHK9dbrPZh2NWs6k7JlUKIImg8LpXgGpF6mEcwWQ87zp1mVdTWywGf2vX6QJKAtJKAeBABgIFKnAWa6TKdZX78Rfr//D/5nsWyCByD1/bymMymLqeQIxLVPsE81FyvrbwGz/oUBg1qwJqAeBCAGA3oAzDZBG0THyT6ue6v/G5FXSAu0zAIrd5y8I+kJELDQI2Pmm2+PFAKQFgcg0yLAM2Gw64z6FPDL3jgANigw313c1wo7NN4D0DJg4O22xwKr7n/1G0mQ0wSA6ebbpg8BMMF/EARIZBQJ0EsAXg+DLHEAtp0KAzlmT5jjS2obnB7ttgIArQV5rbt/EoD2AArvtHkWYNTAcSY6NSAA2xadbm+Cfzu8AEJ4mvdW5BXTAi2ygNm9sv/8leaPeMcZzAe5txoQgNkTzoV/rRsJt9UTQA9Ai5CEt9pYC5hFrvvPf0ASMAjQ1rVNDQgAPQCt9oDQA9BYSOCFt84C6w5NL9l37l2SgLoCet7rqgEBoAeg3R4QegBaByO84SZbYE1ncvLBcydJAvKCbR31SQA41eCOvVCmXZr8OuS10wIttEBnYmLPuV+RBNQR1PNcUz0IAHcBtGPBn2th5y3/579da+ELlLdMCzTfAsv2n33iOgkQMNHgw3z97aEIgNn3b+X1NsA9ebcBpsQBSGwDTH4NUI88kRbgEKAAgPzpc7//ROdRTv0ukWiKffB/a/6bkHdAC7TUAlO7z2wPEl+RUyDC8rCxttHgH6etOAD3nA2D+PhvYbDrdXWoIEA7/yEMtqtAQAkCcMIsghPw9h0CFAALo3PoeghcTQTQnvoNsg/XALQUOXjbY2KBzsTybS99t7FAR5LiJikx6KcEAorBX4jAgAQg2gWgwVuDuoC55FEvUpMBG+yp3yz7yP9zTF6EvA1aoL0WuHHfa7eTBIyR96MsAjDb9QAA1F2AbpdpMiBpEAZfH9TvTp/UxT6J/wc9AO0FDd75eFlAvny55IEL/0EiMAZEoCwCoDwAAlCu0b5dpgEE5MDVVushTX3/VIvYqGj74P8iEv2DsOF/Ml5vQd4NLdBiC6y699QtgYkaOAYg2ObpgbIIQOQBADgAgAAOyGsg0WmXni4D2NhtdL/U7wI/bCX2KMo+ui/0j76/dOijUI4Wvy5567TAGFrgridvDkzUQJKAxnpDyiIAGT0AMWg4wEnqBFx8QC71Goion5w2Kdo+sLX+n6AM5xLgR3oM34C8JVqg5Ra486mV3aiBJAGNJAFlEQDPGoCe0aLaJYA6DSICJgAUnY51VXsbjKjfOy2gbaLT/eyJerQRKfa2D1NOD0DLQYK3P94WWNOZXNI5/+tGAmDb3P8C+PqebQIgnwC2PwesdwHssnYB7OyzDTD6FHCgPAAGJNQWPwEJARQNHv2ARXTRLosu9a8TJ21nnfbZU5eDjMHm+v+W0AMZgAeAUwDjjQG8u7ZboDOx7P5zRxLgooGG6STwlmmPfW+HQXzo7X6OtAQCEhIQHzoGwBDbAK01ADbwAFBQjhEmACfOA1jUFIFpI6PMqE4DkU5LPc6j+9M6Ok397tw9bCYS/w9I1Glb6f8D0mLvtr8hef+0wHhbYE1nshs1kNMBtSJCMfgLEXCAvi4bGQG4HgkQoJCQ0UgRwOwDFgNCDqCXvuw65HVfOCfqdB5l46ov96Xtq0E8tl9EpFw2gK0S0vq/of9YBx4AxgEY73c/744WgAWW73lzb60AsMzRdh3PVQsCkIwE2ANGanRuwEON6DWo6LQNUqjTfQPkUCd9S72rPNZR5za6ltdB6yXOpYhJrfpXICzX67v/2DZyH8oGMZhHtsP9wzboExL6qJe8tMH7gZIWoAXG3AKff+DN75EE1MQTUgcCEK0BEFCwAQTAI+U2eGhQQRrS1pdy3T4tj3NCB33qPHRwvXn6RlvdH86BOshR9o9rdklcj75G2BR1uDbJ67SrPydpAPngGoAxf+Pz9mgBywJT2058u/uhnJoAYR1H52VcUx0IgNoFAMABiCBvgw7qbamBSAMT9FxlUod20HNJrYN0luuCrqtPXab1kC6jf5xLX4uk4/IIqO1rQV50kY7bWJ4R6KBe9OPzkQBYb0dmaYEWWGDF1sWvB3vf/pjegApJUC0IQLQGIAIagEQMEJHbGSADCT3J67QBFwVaAB/0h/Z2HuXoC/Vob/pVYNfvPL52dem/3/XBHtDDKF6XS505lL2lHveINPR8bVvwuuMt0gK0gG2BqfXPfCXYc/7fSQIqIgG1IADX1wC4AELKACAAIcnHugp8dH3cRo9mI8ACQEFH59GvLoNeP4k20gfSck06X6f+42sEkCu7xnVq8Z/r/uV+dDnuz5Tr/43D9qIj57HfC8zTArRASyxww48XVpvQwQJG2u3N/OjtkUYAZNV/YheA3gL4lvoMcLQdMPEp4NfDYJA4AApsAEBaCtAAYKQc4Aog6alX+gCpRHu7PgIs3S/6xHXoflxl0LelnBf9Qpqy6Bp0X/b9oA766Bt5W6IeEv1pqa/BLkc7SNRLHocu02n0i2tGH8iLLvRFin5LXnW8TVqAFnBagFEDk2CvidAo02kEIAb/KABQvP9fiMDZ7iGfAMahAwHtVARg+z+EgTleDoNtL0bHqTBAIKDZxQSoADAAFLa0gQSAAz1XPfq06wBAqBepD1tf1+F8KJM89FEGaZfbuq6+dBnSdj9x3vIy4LwioYM+ILWOpHW5pNGun31F19Ue5XZdT54EwPlKZCEt0CILdCaCtZunGDXQ8oKMEvyl75oRAAGHxKG3nCnvgAaXWN+qT4BY1K+UmbboV7moBfDivhQgoh9dJ2mUm/7s/q166ECifZy3AdyRt9tIW7TXEmmtb8qiPgHoMcDbNnfci/SFQ/qKz+G4TqmzbYm2OLdIXdaiFx1vlRagBbwWWNOZDPb8ZjExFTBqEGxz/zUjAAAPDTIAG0gDHAAzBVZSbnQUuKAfG+zQl0jUQTcGJtU36rSuK62BDW1EAvjQBudA3ugo0oF70eV2m54+bTBWoI22kLg2nce1oMwlpZ3W09dnp3266Nfoy/+KHgDv65AVtEALLdCZWHbgtz8jCSjBG1ATAgAwEGnSCnwFcAQ0pFyDjwYS6KAM+gBk3S/6ga6rTspQb2QErqZcpxVoow36812TrZc4j9y3DeRWHv1Dz5WXPvV5bLtJnasMfbnqUIZ+e65bE46IhKE/nM/ZhgSghe943jIt0McCn9n3+kHGChgxCagJAUgAgw/wFNjaYASgSfSjQFCXQ1ekLpc06lAueZxLl4FYoKwn7+gLunF/0X2iXJ9LX4ekRScuU+Da05fyfqAubqdIFfpznRt10s7XB3RQj35QHkt1rc7rkHoSgD5vQlbTAi21wIq7T2+kJ2CEJKAmBEDAASNagAcAQwMRdFAnAGSDD0AJ7XQ9+rbbQQdtROoy5O16XW7Xob2WooMD5bpdXKeA3KWny9AG9y11KIMeJM5l52N9kJJISjl0IdFH3EadD3bVOmiH/118nepcLX298bZpAVqgnwVW7jh5Bz0BIyIBNSEAMUhEo1QbJHxABBCCPvLSH9Iidb2u0+U6rdvoa0OfKEMb3SfqdB86LUAInZ52asSsdXr0LHe7fV26rT439ES6+tS6/frQ9bAD+td96zpdjvZS3+8dwHpagBZosQUmZ57/plmxrhfsCXgxf90Gg9gjjQDEcQA82wDviT4BHG8DfD0MEAvAtQ0w3gIoWwGT2wANICnwQ15LAAlARPIYVYqeyQMYo9El2jj7USNQqdc6ul99PpzH6EYkQ9cD1LSeS1fX41y4Vt2fbqvvL9E+ug7d3u4D/ZjrU7Zx5UUXR9xn1Mb0Y7WHLu4DEm1Rj7xdL9fQ4lcbb50W+P/bu7pYu4rrvHFsDMYYMKYCSqJKlfqG+pKX5gmFJ+c1IrwhkgekCNu6uTjGgH9uipISQVok/hVZVgtEfURxXGOMY4wbTIy4EZQWIZUGK2orP1Spn6JIlU615s4395t11t7n3HN/zjn3fpaO1syatdbM/nzP+dbMnj1bCAyDQDk1sCIt/yib6vWjfUvBwx/880Gv6XsFcD4MKJF/WwJwPh8CZBJnAJjsOAfAyB8fenaddSAfEAnqTGKeXIpNTi7MtujcagPitkn4QcIujdHFRZvZouwl4qTxkz/s2BfXhb74OiJ71pkP6pAcD+OATH3k/4ui8/8nNF4bC+JCcnzE41i+fZjvv2yEgBDY4Ahse+jVO8qpgUoE3HP8SyH7yHaMCYCRsZuRJ+LAjD63extPOFE9ESzNWo2IzI71Pm5Uhw59gNAQjyXa4NMmESsaT/EhbIayJxwtRokDPTAlTGCD+G11judt4QNZrinqj/4/zX6D/6zp8oWAEBgWgZ17X9vRHJ2/PPpMNyI/6apjf+0UwDT7N+mOALb6aqwAgBSCGWUhG9g4YvNkDhJiaTYgZpNM2GYH29JX1qU26hcxWA8dZGcsigt7lr5/rrNdax95rGbLvhgv66J4sGO8rMx+nW1INCjBQD/sV3RKAIb96ZOdEBACCYEHj193zZFLHysJWMnEZXwrAJ6sQA4sYWMkAiIxUkp1Ihu0FyLjNiPfgMzRD0g1+XYRGcdEPJa5XOJaPX9wHWhDHeOyOnQowxfj89cNPSSTtcWAHhLxuU8fEzEg4QsZ6XmcHJvL3A/0+lUTAkJACCwNgXJq4G9WeCl8JUl1mmKNLwEAqZhEmQmG9SCvQo6OqJOtm7EyCfbFdbZR/23+GANiehmNxUgP8UCAqJtEDD8Orx+m3eLDDzKNyWGGtqh/9GMSdqyL+mA7LkfXbrGW9sWXtRAQAkIgITC3adOhS69rJWAlEo0xJgCYPbcQU0U4ZAO9kQyXjci6SDUkOpqlIxZkip/HmOLClhIW2EKGfeSx+3i+bjHw4etA7Mie7ayd6/DjmFEMtoN/8uFrp2uADUsul3jkz2NDAqQfMyEgBITAiAjMbdpy9OJz6awAbQxcxmrIGBMAtzQPYgCZ8CwTJJZsaIYLW0gQV0U4AbFy7Mo2k5a1I6ZJ2ECinzQedx3w4z6YFBEDdhwfdrBJ/VDyAx/okySi5TrGxvHhz7oSi3D1Y4cN/MN29u9YObBYd73yP/874hdfbkJACAiBBQS2PnZ+v1YClrESUJ77z4mA3wT4OG0GHGUT4IBzAJjomJS83kgD7SiXOpE2ExXaTcKnLa5vh51JjsnlyoZIGHqOCTKGDjKy9eOFL64n1XOCksYX9I24qT1jV/xzQoQ698fXF7VH8SI7XB/ioY5xfeUf/vtD/YYJASEgBJaNwLWzb9+vJGDUJGAVVgD25+f/qzOoKYPMAAAcUUlEQVQAzvSamXwQ0L5TvWbfqbJBLpEEkRjIAuQB0vB6rnsSgi/IjUk0tSFpyLP3qA/zhb+Pz3qMI4qBNki2gc5kWxn9RONHrGhs8IPkPqCDTG1u9s72aDdZ+VDd6228GB/8uH77i5ffXPYXXwGEgBAQAk0zt6mcGqjbAUu8HTCmBGDmRHW/28iBSY7JwsjFPt6GiQVl2CVCoqSCfWHr+4DepP+keER4sI1icFu6JhsHjSXFJl2xQb/Zti9O7h99YkywS3GdDetgF2GBtkhCx37D9h3Zme6mZz/7mX65hIAQEAIrhsANe964uzn84R+1GrCU1YAxJQBYAciEVYgiIkqaIZsdCNCICeSEMtfZzvy8L/fJtkbI3jbFBzHT7LbEsLGA1PkayBYx0Bek11scbrM+eDzc58ByHpOPB5xYz/2y3vfNbeyDmGVM7jrQbvKun/72lRX74iuQEBACQsAQ2PnE6S83h+b/oCRg2CRgXAnAiTIrNkIAOVTk0jWbJZKFDxMV4hVSpj7QBj/UIU2PMvzD2DQ+s4MNfBEfepNog0Qb/CsbJBRu7OYLfx5rKjtc0vjzOFFO/mSHMVR907UNo+cYuG6MkWXq+/jV3q6nP5rRL5YQEAJCYOUReOD5WxdODdRZAYMToXElAHkPgCMakE0iq0yA0DGxcBntFdH42aevgxSNTF1bibdEPfy87BwXj8PtnPfX6OuI6/uzOmy5DJ2/XsSBLHZubGhnyUmFH0dpczia/58c/uVfrvwXXxGFgBAQAobAfS9s16mBw6wCjCsBqFcAQB4gF5CQSdNBDzsv0Q4/1M3O69C2EnomOY5b9C7BgQ1kuj43G0cbxo5YuGa0Y/wsvS18uiSPAbEhEZvr6IN1iG+6SF/a87U2dqCX/gkBISAEVg2B3Xu3XjM3/57OCuhKBMaVAMQrAEwgIJJCHplcjIBATJCwZf+oLdJxvCoO9TNI7+PamL0ujS2Iybbsgz65HTq2Az4suT31GyQiIHL2gy0k2pJty9kI3ibCk8dz58tXPlm177wCCwEhIAQKAvfMbdapgR0JQN85APbcP70MaJRzALoeA8yPADb7TpR75iAQkyAKSCMiK5tEO8rwY7JiP9iznS97e/QHO0j0yWOxNu+P9so+z3ojwvX2uBb2xxii/oa153HCB/F4XGyHdi+9fV+8/H9lftyGsu7/l18nFYSAEFh9BPKpgXpEcOERwUMf9pry4TcAcjkfAGQJQPlcXHgj4MFf9ZryudBrDtjn/OKnLwE43Wtm8xkAMwtnADQzJws5gBjaJBMJbJg4TcfE1VVnv+JzbIGoSj2vNLCtj+nbMK4uifjeFwTrfWH/Z3l83O5jWFuXPftWtkNcq/dtq5f+KWmDjsdrt+fs0d3V/96rByEgBIRARuDaQ+8fHrwprmO2vF4SiEL+lggw6XN5lROAfYvnALQRCuuZQEzvk4I2EuUYqYzZOG4ndEjfh4+FPiF9+0rVIxIdNLZBffsx+3i+fVA83+7jof22l754Rz9IQkAICIGxILBl5hff2fBJwCQkALQCkMg9EzOTHUgoIhP2AblEEvHQ5uvQs0TsJDsSBPZJZbq/j3689D5o9/qqHiQtaWwt/WGJHrFZoq2Kjxl70E9kx/8vHBt678P1W35wcbdm/2P56VOnQkAIGAI3HXn33g2dBExCAsArAEw8XO4gX5ANJJMMl8P2TJxGhkxgxc+NATEgi13H+LxN8UXf2dfrS31QbDdG31+qBzZt8aGHRDxfb0sgYG+yzydfS3oBkHb/60dYCAiBcSOw7Xsnv7phTw2chASAVgCMNCoiDohrUHsfmQcxmKRSmW247MgXfRd/nzh0+BYfimkEGekrcl1mHxYf42aZ+l3CeOGL8aIOCX0okezk/hZm/+P+5qt/ISAEhEDTNFsf+sc/35CnBk5CAsArAI4cQS4mC7EsgbTMp20WWuJRn0nnCde3t9TRD2SJ3xaPSLG6vpb4iFfiD4jLdvANZVscHkeEudfhetiPy9n+rpev/E5L//rZFQJCYKIQuPGRE7uao/O/31C3BCYhAXArAG0kBX2VFGRSYR2IDzL5EVmxLWbakc77oX+TbN/WD69EsG+oHzA+9kffrMN1FB3FKzom47ay80NfJtFHpCt9ZP/IBjF2/vU7fzVRX3wNRggIASGQELDHko7OX05JgJEj7/Zfj/WuBCA9929PA7Q8BVAe/8uPAqZHAOkxwP3ne03XY4B0DkAhECOmIWeS3qeqg+AcoSWbYXU0lorks77qL4o5yuqDi93XL10Xk2xlNwR+7OuvIxE19VO1u/GVNt9nCx569a9+Z4WAEJhsBHBqIJP/ei23PvpHxF8lAPn5/8dX4BwAJAB7F88BADEVYgl2pbfZGAmyH5fhk8gtICduL2Tq7XwdJEmyLT6SGh+b7XkMmG2Xa8gE23WNlQ+NdVBc9AG7VAehUxzYeVn5ERbeLi39a+PfZP/2aXRCQAgYAnObmkMfnKxWANZjEjAJCQD2AERkk3WeOEGoFcmAtPIs1YipaqcZeYkHwor6pjiVfVc/iMM26COSsM99lfG2+Q/QV+NEf9wHdJCIF9ggFmQaG9knfAO/yi5fl9nueuzkX+i3RQgIASEwNQh86eD5Y+s6CZiEBIBWAECAIBdI6CsZkQ/ruAzCYzmonW0zkZX+2ZfK1XhJX/x8TLefoG0WX/kPiuvabUyFxHMb66yN41fXgPFyTJQhsw3HTNdB7Tryd2p+8jRQISAEGIHrj1x4at0mAZOQANgKAGaWnnCIRJik+uzJryIipy8xcn+FGM3OjwG+Xka+sMF4I5tIl/st40KcrO+7Fj/Glnq5LozH98N67tPb0TjSGNuuIfLLcXf+7X+8wt8nlYWAEBACU4XAtkffenhdJgGTkABgBSAgJZ6NVmRotmTPdoVMqR3kVdoyOfXpycf3N0wfA20QH5LHkctDx4BvRyx/vf6a0M59chntjHWkC32OX+0tkL/O+p+qHzsNVggIgX4Etn//zW+uuyRgEhIA7AEwQgtmtBHhFF0XCXKsATPXihh9TBAsJNoHjZftvG0wtnJNHf2UmT3Fq3S+T1+PYudYpX/aK5F0PFYfD/Ugrmb+/b8h0ggBITDFCKRTA9fTZsBJSACwAhCQSUXMjmR8G89C0cakVsoUp8/OtfHMN4rv/VGHLWTUN8fmso9RfAN8Spsbd0kKfOJDduY7sK+gz8gH15nk8au97T+a/+4Uf801dCEgBIRAjEA5NXA9nAvQlQCkcwDyGQD2KGB6FTA9BjjwHIBzSz4HAARSiM0RUNjuSM18WwkQ8bwcZpbrfYapu7GV8fv+UHf2BQe0o8+uuo+B+jHCBXEgs83A8Zk94sGXdHbGf/p+xF8daYWAEBAC04/AtodevSOdGlgdpGOv1J22D7/215UT4YP4IfH8/8VeEyYA53vNATsACJ9zvWb2bP6c6TUzp/PnVK8JzgEIySUgmkKMw8xiA8IyouMkgeP5MtvCB3LQeBOhcv9c5utqKff5s52P5ets68s5gei7Do7BZfOnOmMCfXq97+69W3XM7/T/vukKhIAQGIDAzr2v7UinBk4d6XOS4kifVwTWKgEI9gAUYsrEk4iQyqWdSMmIu+g94fk6+zky7IvBtj5ONCZnU8Ub1JfzBbkiKYlipTZeEUAZksaIOPCp6kHfnuj7EpK/v9r705eufJ7eqjng+6JmISAEhMD6QuDB49ddMzf/3vTN/JEETEAC4PcAgIiYeLkctUMXyD7SolWDVgKM+gti9/mP4kc+nnAtPsYPWfVJvlWyAD2kjZ3LAQaID1n1E/jbyX4Lb/XTLv/19aOmqxECQmB4BGzZ004NnMqVgAlIAHgFACTLs9dMPkZMmAFDFpLy9ojDxAUbECHqZIu4kCm+t8v1yoZiGNHyWMsY2aatjLFxO+nQJ2SJ3dVnS1sUA9db4vI4ctlm/CL+4X8eZCkEhMC6R2Bu06ZDl15PjwlOVSIwAQnAMCsAARH5GS3XKwImAmUbT3Z9M98h/UD4kEashUApRjSmSFd8o2tmHcWufEiP+KWd2oqOY9LKgMfjzpevfHLdnp9/Xff41/2PmS5QCAiBURBIpwYqAVjaJkBeAcizVSbTRESOpBJ5wdbauJzrILgy02UbLiN2RI7ZrsSI+mrz930gPuSAcXb2GY0L4yBZxcj9VXj6ODy2HOe2l774ID3+OsoXQj5CQAgIgY2EwNbHzu+fntsBE7gC4EnI14ngjPhB9Fz2s9fIhu2tnX24PIxvsXFxuA+OaeVCzvkaoONY7F+VWzDwfYQ+jFlOCqo+8zXYrv4b9rxxt2b8G+nXS9cqBITAshG4dvbt+6cjCaAE4HEq29MA/imAg/Yo4FIeA8znAOAxwJmWxwBtBQCzZT8jBdG16BPhZRIrZX4aoMWv9If4ThZyht7HaakXws3tpR9Puog7QJZrQjzYc92VPZlzvcTLcaL67S9eflPP8i/7J0ABhIAQ2MgIbN73xtcmPwlwpD/qY4AHLvSa9ME5AHQIUEoAzvSa2ZYEwPYAHKOZvJET1ZmkUtnNmLndyM7XEwG2xGN7+EGCOKs6xSm+jtwrexC2GxfboOwl+kc/nJSYrdUZJ9ix9GWrRzqLd9Ozn/0snW9hr8LWPyEgBISAEFgeAmkJ9fCHf5zcRGACEgDaAwASjEjKyI5JEGQGyb6Rzrf7OnwgfTvXuQwSrnSUxET6rutA/yYrX5d8cLu3a4tf2eX46cz+B56/dXl/6fIWAkJACAiBPgQm+9TAERKAg3YKoDsJcA1WACryymRY6fzslgmTyt6H61wGEffpOmIxKaOMmTriQEbx0QbZZYM2lsVviDHuevbTZ5pE/Dbj16y/74srhRAQAkJgRRCwH9qj85cnbyVgAhKAYVcAWpbTW2fgbgZdyJHidK0qeHuucxkEnHTRKgWRMWxNVjFGsEF/fbF8IkR187nlJx890dz3wvYV+btWECEgBISAEBgCgfte2H7NkUsfT1YS0JIA+A2ApY7Z/+quABhRYebcR/BElhWJEtEx0YIgEQ8+kIgPu+RLfXC7bysxXFKR7Jjkc7zInnVcRgyTrOcy23g7tJm9vaQnEb8dWnXP3GbN+If4vspECAgBIbCiCEzUqYEt5B89AbCaCUDLCgCINyQ8JuiI+CPCDXwq0gzaue+2cjXOqF9H4EzMKCOGr3OffTZ23QP6M+JPr+bVS3pW9GusYEJACAiB0RC4Z25zOjVw7AcGrVICkN4EuIynAAaQGpNiKRN5Fx1m5T6er7sEos8/EzhWEApJtxA7t4OgoSuxo/Ee65/pc5/sW8p+bDmundN/85Pvf7spxK97/KN9WeUlBISAEFhxBOY2bTl68bn6doARMl7SY3I16/acv0sAuF5m/HgN8K97Dc4B8BsA7bXAvAkQCcCsJQH8KuCWxwCxAuCJGSTppSP2PnKNZsaIwaQNnZcU3xMtCD3p4deSQLT5huNFnzT2qi/Wu/5SPBvLsas9I/6dP7z4LS3zr/gXVgGFgBAQAiuLwLWH3j9ckz4nAKtYNrLv/BDxWzJg5F92/9P9/wNG/pQAJPI/32v2n+s1lgBUhwDlBGDfqV6Dz96TvYbPASBS7SPQTILQQ4IoCxEyyUdkmXXwK3HYj8bBcUHekMXX27s+uuwRA9Jsudznm3Fgvb2gZ+vsqW8sEP/K/o0qmhAQAkJACKwSAltmfvGdNU8COsm/5RTA1UoA9p2oCK8ivzZiBcFCZrvK1xMpYkW2aMvxShxv6+von/sKbEq8yJ50SEpA7qlu8YKnCyzm4gt6VumPU2GFgBAQAkJgdRG46ci7965pErAaCUCZ/Y+wAgASzOTpZ8EgUEgQJeqQFXEiJpFznx21+T5HqUc+GGvYxv27xIHHymWLs/iCHt3bX91vpqILASEgBNYAgTU9NXAsCcDpXjNzum/5v7E9AC3Ez3ojPnw8IUJvktu4zDberq8fGk/y66o74q7sO9r82Hy9imPXfiwRf35Bj/1BivzX4GupLoSAEBACa4NAegnL4x/+YdVXAyYpAaA9AEaCbTvf+0ibyR4EDZkJM5FoYDd0P57Ag5366AOSiZzLqZ3H58bY5X/jM//2T3pBz9p8B9WLEBACQmBsCOSjg1fv1MClkn/bJsCyATBvAuy7BYAnAM72Gn4ToNsAaCsAnigH1f2Mne3bykaw3DZKHSSdpL8vb+TudbRqwf3xOFCGRGyLtfiCnrH9OapjISAEhIAQWFMEVvPUwElLAGwFAETpZsgVKToC920gWF5BGDZuV0KBuJFkvzIeugboIMt4Wq4XfSy+oEfL/Gv6vVNnQkAICIGJQMCSgLn598rtACNuPidglHon+dujf/QEgO36L7P/4DHA9Ox/9AggNgEOvwIA4gOhJsIkIk3EibqXSAycnmOAgCFLvOwDPaRvL3UQt0nni3qxxXjgY3XnU/rLtxZufOrjHy+8oMf+AkX+E/E91CCEgBAQAmNBwM5tP/TByYVDgdzBPemgoCXoOsmfzwVY7hkAQyYAdiuAzwEAQYI4cb+dpBEoSDNJ+GRCrnRoo3iJgH0MkDnZ+z58ncdRxfSxc8zK3/Vnx/Um4k8v6BHpj+V7pk6FgBAQApOKwJcOnj+27CRgqATAkX9ZAQheAlT2AFxYOAlwqXsAkADQUwAVUTJxY5bvyNOTL+o2C/exUp1IvthCRz5VW0uflQ3FCPVoJ1m9oGdS//A0LiEgBISAEBg/AtcfufBUcwRHBC9h5o+VgjVLAPJ7AHAKoMloEyASgPwUAAibCTQibbbjMvz6dCDwLLkd5SSJnKG3mFEZulDmOL4NsfSCnvF/lzQCISAEhMDUIbDt0bceHnklYC0TAD4GeFACgBUAImCQeXU/PWqHLpq9Q8eEDPtRJZKJYfydbXlBj17HO3XfOw1YCAgBITARCGz//pvfXNgMuMRVgFESgPQOgGgDIN4BEG0CdO8BGJQA4BwAmm2n2TMTN8g8kJhZI1lg35JIWCy3AoAZOvt36XxctuUYpZzHb8Sf/s9E/BPx/dEghIAQEAJTjcC275386pJWAkYh/3L/f5UTAJwDwLNqN3uuiJztBpV9wmD2UexIF8VGPLT5OvTHrvbKC3q0m3+qv2savBAQAkJg4hBYPDVwiJWAZSUAvAEwvwlw4AZAehPgsCsAjkwxw4ZEEsD1Ycrwg4x8ki6Td9QO3yJ5rG5lwc7pv27Pz78+cX8wGpAQEAJCQAisHwRufOTErubo/O/TaoCRPDb8mUS9lfzx3H+2teV+m/Xjk97+R7N/I/2D+ZMSgLz7384DSE8A2OY/PALYkQDgfQD5EcDyLgAj4I6ZOBNzIWKacUc6+DDBR3ZFN0T/bbEWX9Czfv6+dCVCQAgIASEwwQjs3Pvajubo/OWFQ3z4ef6uMhF9tdRPhF+9/vdirymzfr7vD/Jn4qc9ADP2BAA9BbDPXgaUXwiEBMDvAQhm4oWg/T4BzMQDyT6p3GITJQmVLkoKKNbtL15+M73IKS316zn+Cf6qaGhCQAgIgXWIwO69W685cunj4ZOAtgTAL/fnekX+q5cA2AoAyLeLtPvI3a8EIE5eVWibtbfG8aTP8XJfiy/oEemvw2+ULkkICAEhMEUI4NTA1iV/rAg48q9WAFYzATiTZ//ulcB7Ti0cketJvKVeJQi0IgAyH0T28Ic0P5QrmftPOivnJEAv6Jmi74SGKgSEgBDYSAhsOnTp9e6VgOUmAHzvfym3AFoSgJnThVxBshWZB7Nvb1fVefYOX5KI3eoTJB6WBCy+oGcj/TXpWoWAEBACQmCqEEinBoYrAV3kv8T7/2nz3wokAAfO9a8AdBE2E3wLWVfkHtiUJCC3YebPqwEo1+f0a7l/qr4IGqwQEAJCYCMisPWx8/v7VwK6EoCW5X/bDFjtAVjGCkB6AsDdAjjy6/4EoI20kRhYO8qQbT6shy0kt+WyvU7Yjuu99tD7h5vygh4R/0b8DumahYAQEAJTi8C1s2/fv5gEBOS/nPv/o6wAlARgMQm4+cefpQQAs3BIzMAL0QdkXc3kQep5hQBxKuljkI/Z1S/oEelP7R++Bi4EhIAQEAJNs3nfG19LSUDfc/45IQiP+7VZ/1KeADjfa9L5/3gE8Fx+/I8eA7TH/3wCsOdU7/aX/uv/KiLPJJ2IG4QNorY6ldmGy1G8SkcxTF+/oMf+akT++u4IASEgBITAOkAgnRqYEgB7EoBWAgr5D3v/nx4BLAcA2RkA/hyAs72mnAB4pv1tgLNny/J/IvAB9/crEs/JgNchDqS1o5wkkgoj/pev/O7mJ9//dpPO6V8H/9G6BCEgBISAEBACHoFtD716Rzo1MEwAhr3/TwnAft4A2JIAVElAXgHASYD7TvV2/M2nJQEoRM6z86jMOk/ugxKI7Fu/oMcjpboQEAJCQAgIgfWGwAPP35pODcTtgLICMEIC0LkCQEcBz2AFwCRuA5xKKwSYkUPybL0kBDRjLzomei5TQhDFuvPlK59snT31Dc3419sftq5HCAgBISAEBiNw3wvbF04NtGV/fEZNAHgVgO7/p/0AHbcBZk/3sPkvkbojcRB9tXQfzfxzcsAJBHxZLr6gR/f2B/+ByEIICAEhIATWLwK7927dfOiX/5z2A6QkYK0SgLwKcPBCtfTvCRzEzyTeV+akIZfZz8q3vfTFO+nVydrUt37/lnVlQkAICAEhsEQE7pnbnE4NXMkEYD+vAuQVgGofwJm0YTDc+Y8ZPhN73uhXJQiwo+X+qv3Y1Z5e0LPEvwWZCwEhIASEwEZDYG7TlqMXn1tYCWhZBagOAaJNgH3nAPiNgPE+AE/+PGvHLB+6QuzBDD/ZumTBzulPTzzozXwb7Q9Z1ysEhIAQEAKjILDt0bcebvpe/5sTgrYEID0FQHsAZjsSAFsFmD3bu+Xpz8vSfyF32uQX6fi5fyQIJmFrcvEFPXaPX/f5R/kbkI8QEAJCQAhsUATSgUEHbYafDwEq0nT0KcRv5O8SAH8YkNVnzvaaAxfKgT9fCQgfZO6JnetcNnv76AU9G/SPVZctBISAEBACK4tAOSugkL9/D8CvMumD/CHtJMDgNMDZc73rf/Bxma17Erc6fzgRYL332/Xsp88snNO/stevaEJACAgBISAENiwCO/e+tmPLM/9ycXElgGb/thLQtwKQVwFSAkBJwOMXy6yfCZyJHYQPyXbQsbzlJx89oRf0bNg/TV24EBACQkAIrAUC2380/90df/fv/5neI8C3AMIkwO7/n0+3CrY9+a/lXj+W+0HiEcEjIYhsrM3O6d/19Eczze69W3V/fy3+59WHEBACQkAICIEHj19ny+3pLXlPf56O7jWCt2X95shvkrSyHepju/uN8EH6JttIfRh9/YIebezTH6MQEAJCQAgIgTVH4MZHTuy666e/fQUEzyQPXdvsvo3s2Z7Ldlzvzh9e/JZm+2v+36wOhYAQEAJCQAjECFgigBUBELuXRuZM6G1l+Fm7vZzHlvnTJsTUtWb88f+AtEJACAgBISAExozAzidOf9lI22bsTOZtZZ8IpHv7z376jA7uGfN/pLoXAkJACAgBITAyArv3br1hzxt333Tk3Xtt+d5269sz+nYkr0lLFExv5/Jb4rCwoW/k3uQoBISAEBACQkAICAEhMO0I/D/Di/INHa23JAAAAABJRU5ErkJggg==;fontStyle=1" vertex="1" parent="1">
          <mxGeometry x="100" y="465.5" width="62" height="62" as="geometry" />
        </mxCell>
        <mxCell id="Dy3p9FaAVhc_dsnNynxQ-4" value="Azure Pipelines" style="image;sketch=0;aspect=fixed;html=1;points=[];align=center;fontSize=12;image=img/lib/mscae/Azure_Pipelines.svg;fontStyle=1;labelBackgroundColor=none;" vertex="1" parent="1">
          <mxGeometry x="427.5" y="550" width="60" height="60" as="geometry" />
        </mxCell>
        <mxCell id="Dy3p9FaAVhc_dsnNynxQ-5" value="" style="sketch=0;outlineConnect=0;fontColor=#232F3E;gradientColor=none;fillColor=#ED7100;strokeColor=none;dashed=0;verticalLabelPosition=bottom;verticalAlign=top;align=center;html=1;fontSize=12;fontStyle=0;aspect=fixed;pointerEvents=1;shape=mxgraph.aws4.container_registry_image;" vertex="1" parent="1">
          <mxGeometry x="816" y="484" width="48" height="48" as="geometry" />
        </mxCell>
        <mxCell id="Dy3p9FaAVhc_dsnNynxQ-6" value="" style="sketch=0;outlineConnect=0;fontColor=#232F3E;gradientColor=none;fillColor=#232F3D;strokeColor=none;dashed=0;verticalLabelPosition=bottom;verticalAlign=top;align=center;html=1;fontSize=12;fontStyle=0;aspect=fixed;pointerEvents=1;shape=mxgraph.aws4.source_code;" vertex="1" parent="1">
          <mxGeometry x="752" y="482" width="37" height="50.63" as="geometry" />
        </mxCell>
        <mxCell id="Dy3p9FaAVhc_dsnNynxQ-9" value="ConteÃºdo EstÃ¡tico" style="text;html=1;strokeColor=none;fillColor=none;align=center;verticalAlign=middle;whiteSpace=wrap;rounded=0;fontStyle=1" vertex="1" parent="1">
          <mxGeometry x="744" y="445" width="120" height="30" as="geometry" />
        </mxCell>
        <mxCell id="Dy3p9FaAVhc_dsnNynxQ-15" style="edgeStyle=orthogonalEdgeStyle;rounded=0;orthogonalLoop=1;jettySize=auto;html=1;" edge="1" parent="1">
          <mxGeometry relative="1" as="geometry">
            <mxPoint x="342.5" y="500.82" as="targetPoint" />
            <mxPoint x="200" y="500.86999999999995" as="sourcePoint" />
          </mxGeometry>
        </mxCell>
        <mxCell id="Dy3p9FaAVhc_dsnNynxQ-17" value="" style="shape=image;verticalLabelPosition=bottom;labelBackgroundColor=default;verticalAlign=top;aspect=fixed;imageAspect=0;image=data:image/png,iVBORw0KGgoAAAANSUhEUgAAAEUAAAAqCAYAAADlL5amAAAAAXNSR0IArs4c6QAAAARnQU1BAACxjwv8YQUAAAAJcEhZcwAADsMAAA7DAcdvqGQAAARwSURBVGhD7ZhtaFtVGMf/N22TNLcv6VvaMjemtMx26+ikmx/2oek69oKKG34Yop0IfvF1YzJRKSgotAwGE4T5TZRBQRysk+lwVRYF2ZjOtqNWrdZ12iXW1Jg2b017E885OWnvbW4omnPbbNwf/LnnOc8h5+Z/nnNyb6QkASYaLPxqosI0RQfTFB1MU3QwTdHBNEUH0xQdTFN0ME3RQegT7dvnhjEw4uXR6rJ7cz26D2zlUW4INUV68kPeWhuSZw7zVm4Ytn3cTXU4srcJrjI7izfVl+HY/ma0rK9gcWWJDS+R/L6t61icTxhiikWS8OnxTpzq2o4X9tzP+mj75BNtOP30gyx+xt2Ad0jf+Zc7INsKWV++YIgpCbIjv5/4G3RjDpIr5dr4NLtev5mKh24F2LgfbwcRnltgffmCYWcKrZb1VQ5M+MO8B7jPVYrxqVkegeRleP+JYEERcwt5f6bQKlAbQlEbQvl9OizMEJGIrZTXRnhrbUj2bOat3DDMlApbEWJKgkfGYC+wILygIM7nyWtTah1W3FvmYG2jCc7NYzSQ2qaiTDHkTCm3FvHWf+eVXU401Vp5tDJykfifc7Gm0KJjhff/VFdqwcEWGZKkn8+qxXnFINaUhEJujors8fSN6qiAfOkTj1TheIdT09/ZWIy/Qgp+8M6hr6sWh9tKNfns4vMKQrAp5CFMIUpkN4Ua0vNQNXZssOPiKDkLVDl3QzE8v0RY++xQCM/uLMehbSWaMZkic9E5qQQhePukV4z+GmSqwEIMebgabRtsePGsDzduRxdzVbKELfU2eH6lh2YCHw8G0TswjaPtFTj0ADGGj8sUNSafKyW9YrRSEuRmVbIVSDh10EUMseP5j4ghf8Q0+V0NDoTjCVyfIEbxvv6hGfRe8uNIeyWe20leJFXjl0TmuiMqhZb0ssPwzf3V2HZPMd64MIVRHzFkWd7d6MDlsTD5ntr+/uEZ9H0bRNeOcuxrljW5Rd0ZlcKNUeldjx/f3YrgsdYy1MhkWlXOWSyhlRjm+Tmk6adqrrOidZ0NX/4UwsDoTEaeic2Z75XCVk+ryUAcr/d7EYwqeHVPDZx2akwq526QMU/ega78pj14N7msONpRTcyMovsTb+o9SZVfEpmTLoQgVq1SqOhfBL0XfSlj9rog02c00u9ulJkh8+SRPT12Y2UhjnXW4Mp4CKc9U6Qr8/MWlZ5XEMZUCl295fueKzqv4MTnPszGFGJGCRxWCds3ymTr0DfopXEHWp34emwW73/jJ5H2MzRKVwqrUDGIrxS6t9lN6qwoVyy+gJOXvLhwI4B2UiWUr8aCmjHvef7EmavEEFVfVqXnFYT4SmF7O72C2RWLU+OSGJmMoOezSYRJ5ejlV1KhRSLX9LxiMORMCcwEEQzPkkcIZUXd9EdxfnBaN7eSQpEwJv1TwitF7F8HT/Xx1tqQ/OBx3soNoaa8dW4YX4z4eLS67N5Sj+5HW3iUG0JNuVsQe6bcJZim6GCaooNpig6mKRkA/wL3cncTSDSdrQAAAABJRU5ErkJggg==;" vertex="1" parent="1">
          <mxGeometry x="675" y="411.5" width="69" height="42" as="geometry" />
        </mxCell>
        <mxCell id="Dy3p9FaAVhc_dsnNynxQ-14" value="Azure Static WebApp" style="text;html=1;strokeColor=none;fillColor=none;align=center;verticalAlign=middle;whiteSpace=wrap;rounded=0;fontStyle=1" vertex="1" parent="1">
          <mxGeometry x="716" y="417.5" width="150" height="30" as="geometry" />
        </mxCell>
      </root>
    </mxGraphModel>
  </diagram>
</mxfile>
